%TF.GenerationSoftware,KiCad,Pcbnew,10.0.1*%
%TF.CreationDate,2026-05-11T03:24:49+05:30*%
%TF.ProjectId,STM32G_SuperSpeed_USB_Sensor_Module,53544d33-3247-45f5-9375-706572537065,rev?*%
%TF.SameCoordinates,Original*%
%TF.FileFunction,Paste,Top*%
%TF.FilePolarity,Positive*%
%FSLAX46Y46*%
G04 Gerber Fmt 4.6, Leading zero omitted, Abs format (unit mm)*
G04 Created by KiCad (PCBNEW 10.0.1) date 2026-05-11 03:24:49*
%MOMM*%
%LPD*%
G01*
G04 APERTURE LIST*
G04 Aperture macros list*
%AMRoundRect*
0 Rectangle with rounded corners*
0 $1 Rounding radius*
0 $2 $3 $4 $5 $6 $7 $8 $9 X,Y pos of 4 corners*
0 Add a 4 corners polygon primitive as box body*
4,1,4,$2,$3,$4,$5,$6,$7,$8,$9,$2,$3,0*
0 Add four circle primitives for the rounded corners*
1,1,$1+$1,$2,$3*
1,1,$1+$1,$4,$5*
1,1,$1+$1,$6,$7*
1,1,$1+$1,$8,$9*
0 Add four rect primitives between the rounded corners*
20,1,$1+$1,$2,$3,$4,$5,0*
20,1,$1+$1,$4,$5,$6,$7,0*
20,1,$1+$1,$6,$7,$8,$9,0*
20,1,$1+$1,$8,$9,$2,$3,0*%
G04 Aperture macros list end*
%ADD10RoundRect,0.125000X0.125000X-0.625000X0.125000X0.625000X-0.125000X0.625000X-0.125000X-0.625000X0*%
%ADD11RoundRect,0.125000X0.625000X-0.125000X0.625000X0.125000X-0.625000X0.125000X-0.625000X-0.125000X0*%
%ADD12RoundRect,0.250000X0.262500X0.450000X-0.262500X0.450000X-0.262500X-0.450000X0.262500X-0.450000X0*%
%ADD13RoundRect,0.243750X-0.243750X-0.456250X0.243750X-0.456250X0.243750X0.456250X-0.243750X0.456250X0*%
%ADD14RoundRect,0.250000X-0.250000X-0.475000X0.250000X-0.475000X0.250000X0.475000X-0.250000X0.475000X0*%
%ADD15RoundRect,0.250000X-0.450000X0.262500X-0.450000X-0.262500X0.450000X-0.262500X0.450000X0.262500X0*%
G04 APERTURE END LIST*
D10*
%TO.C,U1*%
X146100000Y-106175000D03*
X146900000Y-106175000D03*
X147700000Y-106175000D03*
X148500000Y-106175000D03*
X149300000Y-106175000D03*
X150100000Y-106175000D03*
X150900000Y-106175000D03*
X151700000Y-106175000D03*
D11*
X153075000Y-104800000D03*
X153075000Y-104000000D03*
X153075000Y-103200000D03*
X153075000Y-102400000D03*
X153075000Y-101600000D03*
X153075000Y-100800000D03*
X153075000Y-100000000D03*
X153075000Y-99200000D03*
D10*
X151700000Y-97825000D03*
X150900000Y-97825000D03*
X150100000Y-97825000D03*
X149300000Y-97825000D03*
X148500000Y-97825000D03*
X147700000Y-97825000D03*
X146900000Y-97825000D03*
X146100000Y-97825000D03*
D11*
X144725000Y-99200000D03*
X144725000Y-100000000D03*
X144725000Y-100800000D03*
X144725000Y-101600000D03*
X144725000Y-102400000D03*
X144725000Y-103200000D03*
X144725000Y-104000000D03*
X144725000Y-104800000D03*
%TD*%
D12*
%TO.C,R3*%
X141175000Y-109500000D03*
X143000000Y-109500000D03*
%TD*%
D13*
%TO.C,D1*%
X136062500Y-109500000D03*
X137937500Y-109500000D03*
%TD*%
D14*
%TO.C,C2*%
X141450000Y-105500000D03*
X139550000Y-105500000D03*
%TD*%
%TO.C,C1*%
X141450000Y-102500000D03*
X139550000Y-102500000D03*
%TD*%
D15*
%TO.C,R5*%
X147500000Y-111000000D03*
X147500000Y-109175000D03*
%TD*%
%TO.C,R4*%
X152000000Y-110912500D03*
X152000000Y-109087500D03*
%TD*%
D12*
%TO.C,R2*%
X135912500Y-105500000D03*
X134087500Y-105500000D03*
%TD*%
%TO.C,R1*%
X135912500Y-102500000D03*
X134087500Y-102500000D03*
%TD*%
M02*
