%TF.GenerationSoftware,KiCad,Pcbnew,10.0.1*%
%TF.CreationDate,2026-05-11T03:24:49+05:30*%
%TF.ProjectId,STM32G_SuperSpeed_USB_Sensor_Module,53544d33-3247-45f5-9375-706572537065,rev?*%
%TF.SameCoordinates,Original*%
%TF.FileFunction,Copper,L2,Bot*%
%TF.FilePolarity,Positive*%
%FSLAX46Y46*%
G04 Gerber Fmt 4.6, Leading zero omitted, Abs format (unit mm)*
G04 Created by KiCad (PCBNEW 10.0.1) date 2026-05-11 03:24:49*
%MOMM*%
%LPD*%
G01*
G04 APERTURE LIST*
%TA.AperFunction,ComponentPad*%
%ADD10C,1.700000*%
%TD*%
%TA.AperFunction,ComponentPad*%
%ADD11R,1.700000X1.700000*%
%TD*%
%TA.AperFunction,ComponentPad*%
%ADD12O,0.900000X1.700000*%
%TD*%
%TA.AperFunction,ComponentPad*%
%ADD13O,0.900000X2.400000*%
%TD*%
%TA.AperFunction,ComponentPad*%
%ADD14C,0.700000*%
%TD*%
%TA.AperFunction,ViaPad*%
%ADD15C,0.600000*%
%TD*%
%TA.AperFunction,Conductor*%
%ADD16C,0.200000*%
%TD*%
G04 APERTURE END LIST*
D10*
%TO.P,J3,4,Pin_4_4*%
%TO.N,/I2C_SCL*%
X157400000Y-111325000D03*
%TO.P,J3,3,Pin_3_3*%
%TO.N,/I2C_SDA*%
X157400000Y-108785000D03*
%TO.P,J3,2,Pin_2_2*%
%TO.N,GND*%
X157400000Y-106245000D03*
D11*
%TO.P,J3,1,Pin_1_1*%
%TO.N,+3.3V*%
X157400000Y-103705000D03*
%TD*%
%TO.P,J4,1,Pin_1_1*%
%TO.N,+3.3V*%
X157400000Y-91705000D03*
D10*
%TO.P,J4,2,Pin_2_2*%
%TO.N,GND*%
X157400000Y-94245000D03*
%TO.P,J4,3,Pin_3_3*%
%TO.N,/UART_TX*%
X157400000Y-96785000D03*
%TO.P,J4,4,Pin_4_4*%
%TO.N,/UART_RX*%
X157400000Y-99325000D03*
%TD*%
D12*
%TO.P,J1,SH,SHIELD_SH*%
%TO.N,GND*%
X141000000Y-94880000D03*
D13*
X141000000Y-91500000D03*
D12*
X132350000Y-94880000D03*
D13*
X132350000Y-91500000D03*
D14*
%TO.P,J1,B12,GND_B12*%
X133700000Y-91870000D03*
%TO.P,J1,B9,VBUS_B9*%
%TO.N,+5V*%
X134550000Y-91870000D03*
%TO.P,J1,B8,SBU2_B8*%
%TO.N,unconnected-(J1-SBU2-PadB8)*%
X135400000Y-91870000D03*
%TO.P,J1,B7,D-_B7*%
%TO.N,/USB_DM*%
X136250000Y-91870000D03*
%TO.P,J1,B6,D+_B6*%
%TO.N,/USB_DP*%
X137100000Y-91870000D03*
%TO.P,J1,B5,CC2_B5*%
%TO.N,Net-(J1-CC2)*%
X137950000Y-91870000D03*
%TO.P,J1,B4,VBUS_B4*%
%TO.N,+5V*%
X138800000Y-91870000D03*
%TO.P,J1,B1,GND_B1*%
%TO.N,GND*%
X139650000Y-91870000D03*
%TO.P,J1,A12,GND_A12*%
X139650000Y-90520000D03*
%TO.P,J1,A9,VBUS_A9*%
%TO.N,+5V*%
X138800000Y-90520000D03*
%TO.P,J1,A8,SBU1_A8*%
%TO.N,unconnected-(J1-SBU1-PadA8)*%
X137950000Y-90520000D03*
%TO.P,J1,A7,D-_A7*%
%TO.N,/USB_DM*%
X137100000Y-90520000D03*
%TO.P,J1,A6,D+_A6*%
%TO.N,/USB_DP*%
X136250000Y-90520000D03*
%TO.P,J1,A5,CC1_A5*%
%TO.N,Net-(J1-CC1)*%
X135400000Y-90520000D03*
%TO.P,J1,A4,VBUS_A4*%
%TO.N,+5V*%
X134550000Y-90520000D03*
%TO.P,J1,A1,GND_A1*%
%TO.N,GND*%
X133700000Y-90520000D03*
%TD*%
D10*
%TO.P,J2,4,Pin_4_4*%
%TO.N,GND*%
X152520000Y-91825000D03*
%TO.P,J2,3,Pin_3_3*%
%TO.N,/SWCLK*%
X149980000Y-91825000D03*
%TO.P,J2,2,Pin_2_2*%
%TO.N,/SWDIO*%
X147440000Y-91825000D03*
D11*
%TO.P,J2,1,Pin_1_1*%
%TO.N,+3.3V*%
X144900000Y-91825000D03*
%TD*%
D15*
%TO.N,/I2C_SCL*%
X147500000Y-111000000D03*
X142500000Y-106400000D03*
%TO.N,/I2C_SDA*%
X144725000Y-103200000D03*
%TO.N,GND*%
X153075000Y-99200000D03*
X154802750Y-99372985D03*
%TO.N,+3.3V*%
X153075000Y-100000000D03*
X151825916Y-101432421D03*
X151700000Y-96500000D03*
X154202750Y-97566273D03*
%TO.N,/UART_RX*%
X149500000Y-96000000D03*
%TO.N,/USB_DP*%
X147500000Y-96300003D03*
%TO.N,/SWCLK*%
X146300000Y-96000000D03*
%TO.N,/I2C_SDA*%
X150450000Y-110050000D03*
%TO.N,Net-(J1-CC2)*%
X138000000Y-94500000D03*
%TO.N,/USB_DP*%
X146300000Y-94000000D03*
%TO.N,/SWCLK*%
X147500000Y-95500000D03*
%TO.N,/UART_RX*%
X155000000Y-97500000D03*
%TD*%
%TO.N,/I2C_SCL*%
D16*
X147500000Y-110800000D02*
X147500000Y-111000000D01*
X145200000Y-108500000D02*
X147500000Y-110800000D01*
X144000000Y-108500000D02*
X145200000Y-108500000D01*
X144000000Y-107900000D02*
X144000000Y-108500000D01*
X142500000Y-106400000D02*
X144000000Y-107900000D01*
%TO.N,/I2C_SDA*%
X144425000Y-103500000D02*
X144725000Y-103200000D01*
X143500000Y-103500000D02*
X144425000Y-103500000D01*
%TO.N,GND*%
X153247985Y-99372985D02*
X153075000Y-99200000D01*
X154802750Y-99372985D02*
X153247985Y-99372985D01*
%TO.N,+3.3V*%
X152000000Y-100000000D02*
X153075000Y-100000000D01*
X152000000Y-101258337D02*
X152000000Y-100000000D01*
X151825916Y-101432421D02*
X152000000Y-101258337D01*
X152766273Y-97566273D02*
X151700000Y-96500000D01*
X154202750Y-97566273D02*
X152766273Y-97566273D01*
%TO.N,/USB_DP*%
X147699997Y-96300003D02*
X147500000Y-96300003D01*
X148500000Y-95500000D02*
X147699997Y-96300003D01*
%TO.N,/SWCLK*%
X146800000Y-95500000D02*
X146300000Y-96000000D01*
X147500000Y-95500000D02*
X146800000Y-95500000D01*
%TO.N,+5V*%
X138800000Y-90520000D02*
X138800000Y-91870000D01*
%TO.N,/I2C_SDA*%
X143000000Y-104000000D02*
X143500000Y-103500000D01*
X143000000Y-106000000D02*
X143000000Y-104000000D01*
X150450000Y-110050000D02*
X147900000Y-107500000D01*
X147900000Y-107500000D02*
X144500000Y-107500000D01*
X144500000Y-107500000D02*
X143000000Y-106000000D01*
%TO.N,+5V*%
X134550000Y-91870000D02*
X134550000Y-90520000D01*
%TO.N,GND*%
X141000000Y-94880000D02*
X141000000Y-91500000D01*
%TO.N,Net-(J1-CC2)*%
X137950000Y-94450000D02*
X137950000Y-91870000D01*
X138000000Y-94500000D02*
X137950000Y-94450000D01*
%TO.N,/USB_DP*%
X147000000Y-94000000D02*
X148500000Y-95500000D01*
X146300000Y-94000000D02*
X147000000Y-94000000D01*
%TO.N,/USB_DM*%
X136250000Y-91800761D02*
X136250000Y-91870000D01*
X137100000Y-90950761D02*
X136250000Y-91800761D01*
X137100000Y-90520000D02*
X137100000Y-90950761D01*
%TO.N,/UART_RX*%
X150500000Y-95000000D02*
X149500000Y-96000000D01*
X155000000Y-97500000D02*
X152500000Y-95000000D01*
X152500000Y-95000000D02*
X150500000Y-95000000D01*
%TO.N,+5V*%
X134550000Y-90450761D02*
X134550000Y-90520000D01*
X138800000Y-91870000D02*
X138800000Y-90450761D01*
X138800000Y-90450761D02*
X138219239Y-89870000D01*
X138219239Y-89870000D02*
X135130761Y-89870000D01*
X135130761Y-89870000D02*
X134550000Y-90450761D01*
%TD*%
%TA.AperFunction,Conductor*%
%TO.N,GND*%
G36*
X160442539Y-88020185D02*
G01*
X160488294Y-88072989D01*
X160499500Y-88124500D01*
X160499500Y-114375500D01*
X160479815Y-114442539D01*
X160427011Y-114488294D01*
X160375500Y-114499500D01*
X131624500Y-114499500D01*
X131557461Y-114479815D01*
X131511706Y-114427011D01*
X131500500Y-114375500D01*
X131500500Y-106321153D01*
X141699500Y-106321153D01*
X141699500Y-106478846D01*
X141730261Y-106633489D01*
X141730264Y-106633501D01*
X141790602Y-106779172D01*
X141790609Y-106779185D01*
X141878210Y-106910288D01*
X141878213Y-106910292D01*
X141989707Y-107021786D01*
X141989711Y-107021789D01*
X142120814Y-107109390D01*
X142120827Y-107109397D01*
X142266498Y-107169735D01*
X142266503Y-107169737D01*
X142331147Y-107182595D01*
X142421849Y-107200638D01*
X142483760Y-107233023D01*
X142485339Y-107234574D01*
X143363181Y-108112416D01*
X143396666Y-108173739D01*
X143399500Y-108200097D01*
X143399500Y-108579056D01*
X143440423Y-108731783D01*
X143440426Y-108731790D01*
X143519475Y-108868709D01*
X143519479Y-108868714D01*
X143519480Y-108868716D01*
X143631284Y-108980520D01*
X143631286Y-108980521D01*
X143631290Y-108980524D01*
X143768209Y-109059573D01*
X143768216Y-109059577D01*
X143920943Y-109100500D01*
X144079057Y-109100500D01*
X144899903Y-109100500D01*
X144966942Y-109120185D01*
X144987584Y-109136819D01*
X146664649Y-110813884D01*
X146698134Y-110875207D01*
X146698490Y-110914937D01*
X146700097Y-110915096D01*
X146699500Y-110921158D01*
X146699500Y-111078846D01*
X146730261Y-111233489D01*
X146730264Y-111233501D01*
X146790602Y-111379172D01*
X146790609Y-111379185D01*
X146878210Y-111510288D01*
X146878213Y-111510292D01*
X146989707Y-111621786D01*
X146989711Y-111621789D01*
X147120814Y-111709390D01*
X147120827Y-111709397D01*
X147266498Y-111769735D01*
X147266503Y-111769737D01*
X147421153Y-111800499D01*
X147421156Y-111800500D01*
X147421158Y-111800500D01*
X147578844Y-111800500D01*
X147578845Y-111800499D01*
X147733497Y-111769737D01*
X147879179Y-111709394D01*
X148010289Y-111621789D01*
X148121789Y-111510289D01*
X148209394Y-111379179D01*
X148269737Y-111233497D01*
X148300500Y-111078842D01*
X148300500Y-110921158D01*
X148300500Y-110921155D01*
X148300499Y-110921153D01*
X148280326Y-110819737D01*
X148269737Y-110766503D01*
X148266791Y-110759390D01*
X148209397Y-110620827D01*
X148209390Y-110620814D01*
X148121789Y-110489711D01*
X148121786Y-110489707D01*
X148010292Y-110378213D01*
X148010288Y-110378210D01*
X147879185Y-110290609D01*
X147879176Y-110290604D01*
X147834811Y-110272228D01*
X147794583Y-110245348D01*
X145861416Y-108312181D01*
X145827931Y-108250858D01*
X145832915Y-108181166D01*
X145874787Y-108125233D01*
X145940251Y-108100816D01*
X145949097Y-108100500D01*
X147599903Y-108100500D01*
X147666942Y-108120185D01*
X147687584Y-108136819D01*
X149615425Y-110064660D01*
X149648910Y-110125983D01*
X149649361Y-110128149D01*
X149680261Y-110283491D01*
X149680264Y-110283501D01*
X149740602Y-110429172D01*
X149740609Y-110429185D01*
X149828210Y-110560288D01*
X149828213Y-110560292D01*
X149939707Y-110671786D01*
X149939711Y-110671789D01*
X150070814Y-110759390D01*
X150070827Y-110759397D01*
X150216498Y-110819735D01*
X150216503Y-110819737D01*
X150371153Y-110850499D01*
X150371156Y-110850500D01*
X150371158Y-110850500D01*
X150528844Y-110850500D01*
X150528845Y-110850499D01*
X150683497Y-110819737D01*
X150829179Y-110759394D01*
X150960289Y-110671789D01*
X151071789Y-110560289D01*
X151159394Y-110429179D01*
X151219737Y-110283497D01*
X151250500Y-110128842D01*
X151250500Y-109971158D01*
X151250500Y-109971155D01*
X151250499Y-109971153D01*
X151219737Y-109816503D01*
X151219158Y-109815104D01*
X151159397Y-109670827D01*
X151159390Y-109670814D01*
X151071789Y-109539711D01*
X151071786Y-109539707D01*
X150960292Y-109428213D01*
X150960288Y-109428210D01*
X150829185Y-109340609D01*
X150829172Y-109340602D01*
X150683501Y-109280264D01*
X150683491Y-109280261D01*
X150528151Y-109249362D01*
X150466241Y-109216977D01*
X150464662Y-109215426D01*
X150010758Y-108761522D01*
X148387590Y-107138355D01*
X148387588Y-107138352D01*
X148268717Y-107019481D01*
X148268716Y-107019480D01*
X148181904Y-106969360D01*
X148181904Y-106969359D01*
X148181900Y-106969358D01*
X148131785Y-106940423D01*
X147979057Y-106899499D01*
X147820943Y-106899499D01*
X147813347Y-106899499D01*
X147813331Y-106899500D01*
X144800097Y-106899500D01*
X144733058Y-106879815D01*
X144712416Y-106863181D01*
X143636819Y-105787584D01*
X143603334Y-105726261D01*
X143600500Y-105699903D01*
X143600500Y-104300098D01*
X143609144Y-104270660D01*
X143615668Y-104240670D01*
X143619423Y-104235653D01*
X143620185Y-104233059D01*
X143636819Y-104212416D01*
X143712418Y-104136818D01*
X143773742Y-104103334D01*
X143800099Y-104100500D01*
X144338331Y-104100500D01*
X144338347Y-104100501D01*
X144345943Y-104100501D01*
X144504054Y-104100501D01*
X144504057Y-104100501D01*
X144656785Y-104059577D01*
X144706904Y-104030639D01*
X144718952Y-104023682D01*
X144730341Y-104017109D01*
X144730406Y-104017093D01*
X144792334Y-104000500D01*
X144803844Y-104000500D01*
X144803845Y-104000499D01*
X144958497Y-103969737D01*
X145104179Y-103909394D01*
X145235289Y-103821789D01*
X145346789Y-103710289D01*
X145434394Y-103579179D01*
X145494737Y-103433497D01*
X145525500Y-103278842D01*
X145525500Y-103121158D01*
X145525500Y-103121155D01*
X145525499Y-103121153D01*
X145494738Y-102966510D01*
X145494737Y-102966503D01*
X145483936Y-102940426D01*
X145447002Y-102851258D01*
X145434395Y-102820823D01*
X145434390Y-102820814D01*
X145425250Y-102807135D01*
X156049500Y-102807135D01*
X156049500Y-104602870D01*
X156049501Y-104602876D01*
X156055908Y-104662483D01*
X156106202Y-104797328D01*
X156106206Y-104797335D01*
X156192452Y-104912544D01*
X156192455Y-104912547D01*
X156307664Y-104998793D01*
X156307671Y-104998797D01*
X156352618Y-105015561D01*
X156442517Y-105049091D01*
X156502127Y-105055500D01*
X156512685Y-105055499D01*
X156579723Y-105075179D01*
X156600372Y-105091818D01*
X157270591Y-105762037D01*
X157207007Y-105779075D01*
X157092993Y-105844901D01*
X156999901Y-105937993D01*
X156934075Y-106052007D01*
X156917037Y-106115591D01*
X156284728Y-105483282D01*
X156284727Y-105483282D01*
X156245380Y-105537439D01*
X156148904Y-105726782D01*
X156083242Y-105928869D01*
X156083242Y-105928872D01*
X156050000Y-106138753D01*
X156050000Y-106351246D01*
X156083242Y-106561127D01*
X156083242Y-106561130D01*
X156148904Y-106763217D01*
X156245375Y-106952550D01*
X156284728Y-107006716D01*
X156917037Y-106374408D01*
X156934075Y-106437993D01*
X156999901Y-106552007D01*
X157092993Y-106645099D01*
X157207007Y-106710925D01*
X157270590Y-106727962D01*
X156638282Y-107360269D01*
X156638282Y-107360270D01*
X156692452Y-107399626D01*
X156692451Y-107399626D01*
X156701495Y-107404234D01*
X156752292Y-107452208D01*
X156769087Y-107520029D01*
X156746550Y-107586164D01*
X156701499Y-107625202D01*
X156692182Y-107629949D01*
X156520213Y-107754890D01*
X156369890Y-107905213D01*
X156244951Y-108077179D01*
X156148444Y-108266585D01*
X156082753Y-108468760D01*
X156049500Y-108678713D01*
X156049500Y-108891286D01*
X156076154Y-109059577D01*
X156082754Y-109101243D01*
X156140921Y-109280263D01*
X156148444Y-109303414D01*
X156244951Y-109492820D01*
X156369890Y-109664786D01*
X156520213Y-109815109D01*
X156692182Y-109940050D01*
X156700946Y-109944516D01*
X156751742Y-109992491D01*
X156768536Y-110060312D01*
X156745998Y-110126447D01*
X156700946Y-110165484D01*
X156692182Y-110169949D01*
X156520213Y-110294890D01*
X156369890Y-110445213D01*
X156244951Y-110617179D01*
X156148444Y-110806585D01*
X156082753Y-111008760D01*
X156049500Y-111218713D01*
X156049500Y-111431286D01*
X156079672Y-111621789D01*
X156082754Y-111641243D01*
X156124504Y-111769737D01*
X156148444Y-111843414D01*
X156244951Y-112032820D01*
X156369890Y-112204786D01*
X156520213Y-112355109D01*
X156692179Y-112480048D01*
X156692181Y-112480049D01*
X156692184Y-112480051D01*
X156881588Y-112576557D01*
X157083757Y-112642246D01*
X157293713Y-112675500D01*
X157293714Y-112675500D01*
X157506286Y-112675500D01*
X157506287Y-112675500D01*
X157716243Y-112642246D01*
X157918412Y-112576557D01*
X158107816Y-112480051D01*
X158129789Y-112464086D01*
X158279786Y-112355109D01*
X158279788Y-112355106D01*
X158279792Y-112355104D01*
X158430104Y-112204792D01*
X158430106Y-112204788D01*
X158430109Y-112204786D01*
X158555048Y-112032820D01*
X158555047Y-112032820D01*
X158555051Y-112032816D01*
X158651557Y-111843412D01*
X158717246Y-111641243D01*
X158750500Y-111431287D01*
X158750500Y-111218713D01*
X158717246Y-111008757D01*
X158651557Y-110806588D01*
X158555051Y-110617184D01*
X158555049Y-110617181D01*
X158555048Y-110617179D01*
X158430109Y-110445213D01*
X158279786Y-110294890D01*
X158107820Y-110169951D01*
X158107115Y-110169591D01*
X158099054Y-110165485D01*
X158048259Y-110117512D01*
X158031463Y-110049692D01*
X158053999Y-109983556D01*
X158099054Y-109944515D01*
X158107816Y-109940051D01*
X158129789Y-109924086D01*
X158279786Y-109815109D01*
X158279788Y-109815106D01*
X158279792Y-109815104D01*
X158430104Y-109664792D01*
X158430106Y-109664788D01*
X158430109Y-109664786D01*
X158555048Y-109492820D01*
X158555047Y-109492820D01*
X158555051Y-109492816D01*
X158651557Y-109303412D01*
X158717246Y-109101243D01*
X158750500Y-108891287D01*
X158750500Y-108678713D01*
X158717246Y-108468757D01*
X158651557Y-108266588D01*
X158555051Y-108077184D01*
X158555049Y-108077181D01*
X158555048Y-108077179D01*
X158430109Y-107905213D01*
X158279786Y-107754890D01*
X158107817Y-107629949D01*
X158098504Y-107625204D01*
X158047707Y-107577230D01*
X158030912Y-107509409D01*
X158053449Y-107443274D01*
X158098507Y-107404232D01*
X158107555Y-107399622D01*
X158161716Y-107360270D01*
X158161717Y-107360270D01*
X157529408Y-106727962D01*
X157592993Y-106710925D01*
X157707007Y-106645099D01*
X157800099Y-106552007D01*
X157865925Y-106437993D01*
X157882962Y-106374408D01*
X158515270Y-107006717D01*
X158515270Y-107006716D01*
X158554622Y-106952554D01*
X158651095Y-106763217D01*
X158716757Y-106561130D01*
X158716757Y-106561127D01*
X158750000Y-106351246D01*
X158750000Y-106138753D01*
X158716757Y-105928872D01*
X158716757Y-105928869D01*
X158651095Y-105726782D01*
X158554624Y-105537449D01*
X158515270Y-105483282D01*
X158515269Y-105483282D01*
X157882962Y-106115590D01*
X157865925Y-106052007D01*
X157800099Y-105937993D01*
X157707007Y-105844901D01*
X157592993Y-105779075D01*
X157529409Y-105762037D01*
X158199627Y-105091818D01*
X158260950Y-105058333D01*
X158287307Y-105055499D01*
X158297872Y-105055499D01*
X158357483Y-105049091D01*
X158492331Y-104998796D01*
X158607546Y-104912546D01*
X158693796Y-104797331D01*
X158744091Y-104662483D01*
X158750500Y-104602873D01*
X158750499Y-102807128D01*
X158744091Y-102747517D01*
X158722529Y-102689707D01*
X158693797Y-102612671D01*
X158693793Y-102612664D01*
X158607547Y-102497455D01*
X158607544Y-102497452D01*
X158492335Y-102411206D01*
X158492328Y-102411202D01*
X158357482Y-102360908D01*
X158357483Y-102360908D01*
X158297883Y-102354501D01*
X158297881Y-102354500D01*
X158297873Y-102354500D01*
X158297864Y-102354500D01*
X156502129Y-102354500D01*
X156502123Y-102354501D01*
X156442516Y-102360908D01*
X156307671Y-102411202D01*
X156307664Y-102411206D01*
X156192455Y-102497452D01*
X156192452Y-102497455D01*
X156106206Y-102612664D01*
X156106202Y-102612671D01*
X156055908Y-102747517D01*
X156049501Y-102807116D01*
X156049501Y-102807123D01*
X156049500Y-102807135D01*
X145425250Y-102807135D01*
X145346789Y-102689711D01*
X145346786Y-102689707D01*
X145235292Y-102578213D01*
X145235288Y-102578210D01*
X145104185Y-102490609D01*
X145104172Y-102490602D01*
X144958501Y-102430264D01*
X144958489Y-102430261D01*
X144803845Y-102399500D01*
X144803842Y-102399500D01*
X144646158Y-102399500D01*
X144646155Y-102399500D01*
X144491510Y-102430261D01*
X144491498Y-102430264D01*
X144345827Y-102490602D01*
X144345814Y-102490609D01*
X144214711Y-102578210D01*
X144214707Y-102578213D01*
X144103213Y-102689707D01*
X144103210Y-102689711D01*
X144015609Y-102820814D01*
X144015607Y-102820819D01*
X144014725Y-102822949D01*
X144013964Y-102823893D01*
X144012736Y-102826191D01*
X144012300Y-102825958D01*
X143970885Y-102877354D01*
X143904592Y-102899421D01*
X143900162Y-102899500D01*
X143586670Y-102899500D01*
X143586654Y-102899499D01*
X143579058Y-102899499D01*
X143420943Y-102899499D01*
X143344579Y-102919961D01*
X143268214Y-102940423D01*
X143268209Y-102940426D01*
X143131290Y-103019475D01*
X143131282Y-103019481D01*
X142624217Y-103526546D01*
X142624214Y-103526548D01*
X142624215Y-103526549D01*
X142519478Y-103631286D01*
X142491000Y-103680612D01*
X142476761Y-103705276D01*
X142440423Y-103768215D01*
X142399499Y-103920943D01*
X142399499Y-103920945D01*
X142399499Y-104089046D01*
X142399500Y-104089059D01*
X142399500Y-105502044D01*
X142379815Y-105569083D01*
X142327011Y-105614838D01*
X142299691Y-105623661D01*
X142266510Y-105630261D01*
X142266498Y-105630264D01*
X142120827Y-105690602D01*
X142120814Y-105690609D01*
X141989711Y-105778210D01*
X141989707Y-105778213D01*
X141878213Y-105889707D01*
X141878210Y-105889711D01*
X141790609Y-106020814D01*
X141790602Y-106020827D01*
X141730264Y-106166498D01*
X141730261Y-106166510D01*
X141699500Y-106321153D01*
X131500500Y-106321153D01*
X131500500Y-101353574D01*
X151025416Y-101353574D01*
X151025416Y-101511267D01*
X151056177Y-101665910D01*
X151056180Y-101665922D01*
X151116518Y-101811593D01*
X151116525Y-101811606D01*
X151204126Y-101942709D01*
X151204129Y-101942713D01*
X151315623Y-102054207D01*
X151315627Y-102054210D01*
X151446730Y-102141811D01*
X151446743Y-102141818D01*
X151592414Y-102202156D01*
X151592419Y-102202158D01*
X151747069Y-102232920D01*
X151747072Y-102232921D01*
X151747074Y-102232921D01*
X151904760Y-102232921D01*
X151904761Y-102232920D01*
X152059413Y-102202158D01*
X152205095Y-102141815D01*
X152336205Y-102054210D01*
X152447705Y-101942710D01*
X152535310Y-101811600D01*
X152595653Y-101665918D01*
X152626416Y-101511263D01*
X152626416Y-101353579D01*
X152626416Y-101353576D01*
X152602884Y-101235276D01*
X152600501Y-101211087D01*
X152600501Y-101198919D01*
X152600501Y-101179280D01*
X152600500Y-101179276D01*
X152600500Y-100855489D01*
X152620185Y-100788450D01*
X152672989Y-100742695D01*
X152742147Y-100732751D01*
X152771948Y-100740926D01*
X152841503Y-100769737D01*
X152950465Y-100791411D01*
X152996153Y-100800499D01*
X152996156Y-100800500D01*
X152996158Y-100800500D01*
X153153844Y-100800500D01*
X153153845Y-100800499D01*
X153308497Y-100769737D01*
X153454179Y-100709394D01*
X153585289Y-100621789D01*
X153696789Y-100510289D01*
X153784394Y-100379179D01*
X153844737Y-100233497D01*
X153875500Y-100078842D01*
X153875500Y-99921158D01*
X153875500Y-99921155D01*
X153875499Y-99921153D01*
X153875457Y-99920943D01*
X153844737Y-99766503D01*
X153792853Y-99641243D01*
X153784397Y-99620827D01*
X153784390Y-99620814D01*
X153696789Y-99489711D01*
X153696786Y-99489707D01*
X153585292Y-99378213D01*
X153585288Y-99378210D01*
X153454185Y-99290609D01*
X153454172Y-99290602D01*
X153308501Y-99230264D01*
X153308489Y-99230261D01*
X153153845Y-99199500D01*
X153153842Y-99199500D01*
X152996158Y-99199500D01*
X152996155Y-99199500D01*
X152841510Y-99230261D01*
X152841498Y-99230264D01*
X152695827Y-99290602D01*
X152695814Y-99290609D01*
X152564125Y-99378602D01*
X152497447Y-99399480D01*
X152495234Y-99399500D01*
X151920943Y-99399500D01*
X151768216Y-99440423D01*
X151768209Y-99440426D01*
X151631290Y-99519475D01*
X151631282Y-99519481D01*
X151519481Y-99631282D01*
X151519475Y-99631290D01*
X151440426Y-99768209D01*
X151440423Y-99768216D01*
X151399500Y-99920943D01*
X151399500Y-100688310D01*
X151379815Y-100755349D01*
X151344393Y-100791410D01*
X151330791Y-100800500D01*
X151315623Y-100810635D01*
X151315620Y-100810638D01*
X151204129Y-100922128D01*
X151204126Y-100922132D01*
X151116525Y-101053235D01*
X151116518Y-101053248D01*
X151056180Y-101198919D01*
X151056177Y-101198931D01*
X151025416Y-101353574D01*
X131500500Y-101353574D01*
X131500500Y-96073366D01*
X131520185Y-96006327D01*
X131572989Y-95960572D01*
X131642147Y-95950628D01*
X131705703Y-95979653D01*
X131712181Y-95985685D01*
X131744406Y-96017910D01*
X131744410Y-96017913D01*
X131899999Y-96121875D01*
X131900012Y-96121882D01*
X132072889Y-96193489D01*
X132072896Y-96193491D01*
X132100000Y-96198882D01*
X132100000Y-95446988D01*
X132109940Y-95464205D01*
X132165795Y-95520060D01*
X132234204Y-95559556D01*
X132310504Y-95580000D01*
X132389496Y-95580000D01*
X132465796Y-95559556D01*
X132534205Y-95520060D01*
X132590060Y-95464205D01*
X132600000Y-95446988D01*
X132600000Y-96198881D01*
X132627103Y-96193491D01*
X132627110Y-96193489D01*
X132799987Y-96121882D01*
X132800000Y-96121875D01*
X132955589Y-96017913D01*
X132955593Y-96017910D01*
X133087910Y-95885593D01*
X133087913Y-95885589D01*
X133191875Y-95730000D01*
X133191880Y-95729991D01*
X133263491Y-95557105D01*
X133263493Y-95557097D01*
X133299999Y-95373571D01*
X133300000Y-95373569D01*
X133300000Y-95130000D01*
X132650000Y-95130000D01*
X132650000Y-94630000D01*
X133300000Y-94630000D01*
X133300000Y-94386430D01*
X133299999Y-94386428D01*
X133263493Y-94202902D01*
X133263491Y-94202894D01*
X133191880Y-94030008D01*
X133191875Y-94029999D01*
X133087913Y-93874410D01*
X133087910Y-93874406D01*
X132955593Y-93742089D01*
X132955589Y-93742086D01*
X132800000Y-93638124D01*
X132799991Y-93638119D01*
X132627103Y-93566507D01*
X132627100Y-93566506D01*
X132600000Y-93561115D01*
X132600000Y-94313011D01*
X132590060Y-94295795D01*
X132534205Y-94239940D01*
X132465796Y-94200444D01*
X132389496Y-94180000D01*
X132310504Y-94180000D01*
X132234204Y-94200444D01*
X132165795Y-94239940D01*
X132109940Y-94295795D01*
X132100000Y-94313011D01*
X132100000Y-93561116D01*
X132099999Y-93561115D01*
X132072899Y-93566506D01*
X132072896Y-93566507D01*
X131900008Y-93638119D01*
X131899999Y-93638124D01*
X131744410Y-93742086D01*
X131744406Y-93742089D01*
X131712181Y-93774315D01*
X131650858Y-93807800D01*
X131581166Y-93802816D01*
X131525233Y-93760944D01*
X131500816Y-93695480D01*
X131500500Y-93686634D01*
X131500500Y-93043366D01*
X131520185Y-92976327D01*
X131572989Y-92930572D01*
X131642147Y-92920628D01*
X131705703Y-92949653D01*
X131712181Y-92955685D01*
X131744406Y-92987910D01*
X131744410Y-92987913D01*
X131899999Y-93091875D01*
X131900012Y-93091882D01*
X132072889Y-93163489D01*
X132072896Y-93163491D01*
X132100000Y-93168882D01*
X132100000Y-92416988D01*
X132109940Y-92434205D01*
X132165795Y-92490060D01*
X132234204Y-92529556D01*
X132310504Y-92550000D01*
X132389496Y-92550000D01*
X132465796Y-92529556D01*
X132534205Y-92490060D01*
X132590060Y-92434205D01*
X132600000Y-92416988D01*
X132600000Y-93168881D01*
X132627103Y-93163491D01*
X132627110Y-93163489D01*
X132799987Y-93091882D01*
X132800000Y-93091875D01*
X132955589Y-92987913D01*
X132955593Y-92987910D01*
X133087913Y-92855590D01*
X133195264Y-92694928D01*
X133196367Y-92695665D01*
X133240546Y-92650675D01*
X133308681Y-92635203D01*
X133348414Y-92644401D01*
X133452063Y-92687334D01*
X133452071Y-92687336D01*
X133616277Y-92719999D01*
X133616280Y-92720000D01*
X133783720Y-92720000D01*
X133783722Y-92719999D01*
X133947928Y-92687336D01*
X133947932Y-92687335D01*
X134076892Y-92633918D01*
X134146362Y-92626449D01*
X134171795Y-92633916D01*
X134301918Y-92687816D01*
X134463714Y-92719999D01*
X134466228Y-92720499D01*
X134466232Y-92720500D01*
X134466233Y-92720500D01*
X134633768Y-92720500D01*
X134633769Y-92720499D01*
X134798082Y-92687816D01*
X134927548Y-92634188D01*
X134997016Y-92626720D01*
X135022450Y-92634188D01*
X135151918Y-92687816D01*
X135313714Y-92719999D01*
X135316228Y-92720499D01*
X135316232Y-92720500D01*
X135316233Y-92720500D01*
X135483768Y-92720500D01*
X135483769Y-92720499D01*
X135648082Y-92687816D01*
X135777548Y-92634188D01*
X135847016Y-92626720D01*
X135872450Y-92634188D01*
X136001918Y-92687816D01*
X136163714Y-92719999D01*
X136166228Y-92720499D01*
X136166232Y-92720500D01*
X136166233Y-92720500D01*
X136333768Y-92720500D01*
X136333769Y-92720499D01*
X136498082Y-92687816D01*
X136627548Y-92634188D01*
X136697016Y-92626720D01*
X136722450Y-92634188D01*
X136851918Y-92687816D01*
X137013714Y-92719999D01*
X137016228Y-92720499D01*
X137016232Y-92720500D01*
X137016233Y-92720500D01*
X137183768Y-92720500D01*
X137183768Y-92720499D01*
X137201308Y-92717011D01*
X137270900Y-92723238D01*
X137326077Y-92766100D01*
X137349322Y-92831990D01*
X137349500Y-92838628D01*
X137349500Y-93995064D01*
X137329815Y-94062103D01*
X137328603Y-94063954D01*
X137290608Y-94120817D01*
X137290602Y-94120828D01*
X137230264Y-94266498D01*
X137230261Y-94266510D01*
X137199500Y-94421153D01*
X137199500Y-94578846D01*
X137230261Y-94733489D01*
X137230264Y-94733501D01*
X137290602Y-94879172D01*
X137290609Y-94879185D01*
X137378210Y-95010288D01*
X137378213Y-95010292D01*
X137489707Y-95121786D01*
X137489711Y-95121789D01*
X137620814Y-95209390D01*
X137620827Y-95209397D01*
X137766498Y-95269735D01*
X137766503Y-95269737D01*
X137921153Y-95300499D01*
X137921156Y-95300500D01*
X137921158Y-95300500D01*
X138078844Y-95300500D01*
X138078845Y-95300499D01*
X138233497Y-95269737D01*
X138379179Y-95209394D01*
X138510289Y-95121789D01*
X138621789Y-95010289D01*
X138709394Y-94879179D01*
X138769737Y-94733497D01*
X138800500Y-94578842D01*
X138800500Y-94421158D01*
X138800499Y-94421153D01*
X138797193Y-94404530D01*
X138797193Y-94404528D01*
X138793593Y-94386428D01*
X140050000Y-94386428D01*
X140050000Y-94630000D01*
X140700000Y-94630000D01*
X140700000Y-95130000D01*
X140050000Y-95130000D01*
X140050000Y-95373571D01*
X140086506Y-95557097D01*
X140086508Y-95557105D01*
X140158119Y-95729991D01*
X140158124Y-95730000D01*
X140262086Y-95885589D01*
X140262089Y-95885593D01*
X140394406Y-96017910D01*
X140394410Y-96017913D01*
X140549999Y-96121875D01*
X140550012Y-96121882D01*
X140722889Y-96193489D01*
X140722896Y-96193491D01*
X140750000Y-96198882D01*
X140750000Y-95446988D01*
X140759940Y-95464205D01*
X140815795Y-95520060D01*
X140884204Y-95559556D01*
X140960504Y-95580000D01*
X141039496Y-95580000D01*
X141115796Y-95559556D01*
X141184205Y-95520060D01*
X141240060Y-95464205D01*
X141250000Y-95446988D01*
X141250000Y-96198881D01*
X141277103Y-96193491D01*
X141277110Y-96193489D01*
X141449987Y-96121882D01*
X141450000Y-96121875D01*
X141605589Y-96017913D01*
X141605593Y-96017910D01*
X141737910Y-95885593D01*
X141737913Y-95885589D01*
X141841875Y-95730000D01*
X141841880Y-95729991D01*
X141913491Y-95557105D01*
X141913493Y-95557097D01*
X141949999Y-95373571D01*
X141950000Y-95373569D01*
X141950000Y-95130000D01*
X141300000Y-95130000D01*
X141300000Y-94630000D01*
X141950000Y-94630000D01*
X141950000Y-94386430D01*
X141949999Y-94386428D01*
X141913493Y-94202902D01*
X141913491Y-94202894D01*
X141841880Y-94030008D01*
X141841875Y-94029999D01*
X141737913Y-93874410D01*
X141737910Y-93874406D01*
X141605593Y-93742089D01*
X141605589Y-93742086D01*
X141450000Y-93638124D01*
X141449991Y-93638119D01*
X141277103Y-93566507D01*
X141277100Y-93566506D01*
X141250000Y-93561115D01*
X141250000Y-94313011D01*
X141240060Y-94295795D01*
X141184205Y-94239940D01*
X141115796Y-94200444D01*
X141039496Y-94180000D01*
X140960504Y-94180000D01*
X140884204Y-94200444D01*
X140815795Y-94239940D01*
X140759940Y-94295795D01*
X140750000Y-94313011D01*
X140750000Y-93561116D01*
X140749999Y-93561115D01*
X140722899Y-93566506D01*
X140722896Y-93566507D01*
X140550008Y-93638119D01*
X140549999Y-93638124D01*
X140394410Y-93742086D01*
X140394406Y-93742089D01*
X140262089Y-93874406D01*
X140262086Y-93874410D01*
X140158124Y-94029999D01*
X140158119Y-94030008D01*
X140086508Y-94202894D01*
X140086506Y-94202902D01*
X140050000Y-94386428D01*
X138793593Y-94386428D01*
X138769738Y-94266508D01*
X138769737Y-94266507D01*
X138769737Y-94266503D01*
X138743393Y-94202902D01*
X138709397Y-94120827D01*
X138709390Y-94120814D01*
X138621789Y-93989711D01*
X138621786Y-93989707D01*
X138586819Y-93954740D01*
X138553334Y-93893417D01*
X138550500Y-93867059D01*
X138550500Y-92838628D01*
X138570185Y-92771589D01*
X138622989Y-92725834D01*
X138692147Y-92715890D01*
X138698695Y-92717011D01*
X138716231Y-92720499D01*
X138716232Y-92720500D01*
X138716233Y-92720500D01*
X138883768Y-92720500D01*
X138883769Y-92720499D01*
X139048082Y-92687816D01*
X139178203Y-92633917D01*
X139247667Y-92626449D01*
X139273105Y-92633918D01*
X139402063Y-92687334D01*
X139402071Y-92687336D01*
X139566277Y-92719999D01*
X139566280Y-92720000D01*
X139733720Y-92720000D01*
X139733722Y-92719999D01*
X139897928Y-92687336D01*
X139897936Y-92687334D01*
X140001585Y-92644402D01*
X140071055Y-92636933D01*
X140133534Y-92668208D01*
X140154315Y-92695209D01*
X140154736Y-92694929D01*
X140262086Y-92855589D01*
X140262089Y-92855593D01*
X140394406Y-92987910D01*
X140394410Y-92987913D01*
X140549999Y-93091875D01*
X140550012Y-93091882D01*
X140722889Y-93163489D01*
X140722896Y-93163491D01*
X140750000Y-93168882D01*
X140750000Y-92416988D01*
X140759940Y-92434205D01*
X140815795Y-92490060D01*
X140884204Y-92529556D01*
X140960504Y-92550000D01*
X141039496Y-92550000D01*
X141115796Y-92529556D01*
X141184205Y-92490060D01*
X141240060Y-92434205D01*
X141250000Y-92416988D01*
X141250000Y-93168881D01*
X141277103Y-93163491D01*
X141277110Y-93163489D01*
X141449987Y-93091882D01*
X141450000Y-93091875D01*
X141605589Y-92987913D01*
X141605593Y-92987910D01*
X141737910Y-92855593D01*
X141737913Y-92855589D01*
X141841875Y-92700000D01*
X141841880Y-92699991D01*
X141913491Y-92527105D01*
X141913493Y-92527097D01*
X141949999Y-92343571D01*
X141950000Y-92343569D01*
X141950000Y-91750000D01*
X141300000Y-91750000D01*
X141300000Y-91250000D01*
X141950000Y-91250000D01*
X141950000Y-90927135D01*
X143549500Y-90927135D01*
X143549500Y-92722870D01*
X143549501Y-92722876D01*
X143555908Y-92782483D01*
X143606202Y-92917328D01*
X143606206Y-92917335D01*
X143692452Y-93032544D01*
X143692455Y-93032547D01*
X143807664Y-93118793D01*
X143807671Y-93118797D01*
X143942517Y-93169091D01*
X143942516Y-93169091D01*
X143949444Y-93169835D01*
X144002127Y-93175500D01*
X145693059Y-93175499D01*
X145760098Y-93195184D01*
X145805853Y-93247987D01*
X145815797Y-93317146D01*
X145786772Y-93380702D01*
X145780741Y-93387180D01*
X145678210Y-93489711D01*
X145590609Y-93620814D01*
X145590602Y-93620827D01*
X145530264Y-93766498D01*
X145530261Y-93766510D01*
X145499500Y-93921153D01*
X145499500Y-94078846D01*
X145530261Y-94233489D01*
X145530264Y-94233501D01*
X145590602Y-94379172D01*
X145590609Y-94379185D01*
X145678210Y-94510288D01*
X145678213Y-94510292D01*
X145789707Y-94621786D01*
X145789711Y-94621789D01*
X145920814Y-94709390D01*
X145920827Y-94709397D01*
X146006782Y-94745000D01*
X146066503Y-94769737D01*
X146221153Y-94800499D01*
X146221156Y-94800500D01*
X146351372Y-94800500D01*
X146372705Y-94806764D01*
X146394884Y-94808385D01*
X146405579Y-94816417D01*
X146418411Y-94820185D01*
X146432970Y-94836987D01*
X146450753Y-94850342D01*
X146455408Y-94862881D01*
X146464166Y-94872989D01*
X146467330Y-94894998D01*
X146475069Y-94915844D01*
X146472206Y-94928907D01*
X146474110Y-94942147D01*
X146464872Y-94962374D01*
X146460113Y-94984094D01*
X146449072Y-94996971D01*
X146445085Y-95005703D01*
X146438919Y-95012316D01*
X146432350Y-95018864D01*
X146431284Y-95019480D01*
X146285339Y-95165425D01*
X146285203Y-95165561D01*
X146254446Y-95182293D01*
X146224014Y-95198911D01*
X146223834Y-95198948D01*
X146223828Y-95198952D01*
X146223819Y-95198951D01*
X146221848Y-95199362D01*
X146066508Y-95230261D01*
X146066498Y-95230264D01*
X145920827Y-95290602D01*
X145920814Y-95290609D01*
X145789711Y-95378210D01*
X145789707Y-95378213D01*
X145678213Y-95489707D01*
X145678210Y-95489711D01*
X145590609Y-95620814D01*
X145590602Y-95620827D01*
X145530264Y-95766498D01*
X145530261Y-95766510D01*
X145499500Y-95921153D01*
X145499500Y-96078846D01*
X145530261Y-96233489D01*
X145530264Y-96233501D01*
X145590602Y-96379172D01*
X145590609Y-96379185D01*
X145678210Y-96510288D01*
X145678213Y-96510292D01*
X145789707Y-96621786D01*
X145789711Y-96621789D01*
X145920814Y-96709390D01*
X145920827Y-96709397D01*
X146021277Y-96751004D01*
X146066503Y-96769737D01*
X146221153Y-96800499D01*
X146221156Y-96800500D01*
X146221158Y-96800500D01*
X146378844Y-96800500D01*
X146378845Y-96800499D01*
X146533497Y-96769737D01*
X146589120Y-96746697D01*
X146684808Y-96707063D01*
X146685518Y-96708777D01*
X146745415Y-96696293D01*
X146810664Y-96721278D01*
X146838595Y-96751004D01*
X146878210Y-96810291D01*
X146878213Y-96810295D01*
X146989707Y-96921789D01*
X146989711Y-96921792D01*
X147120814Y-97009393D01*
X147120827Y-97009400D01*
X147266498Y-97069738D01*
X147266503Y-97069740D01*
X147421153Y-97100502D01*
X147421156Y-97100503D01*
X147421158Y-97100503D01*
X147578844Y-97100503D01*
X147578845Y-97100502D01*
X147733497Y-97069740D01*
X147879179Y-97009397D01*
X148010289Y-96921792D01*
X148121789Y-96810292D01*
X148209394Y-96679182D01*
X148227773Y-96634807D01*
X148254650Y-96594583D01*
X148565496Y-96283737D01*
X148626817Y-96250254D01*
X148696509Y-96255238D01*
X148752442Y-96297110D01*
X148767736Y-96323967D01*
X148790604Y-96379175D01*
X148790609Y-96379185D01*
X148878210Y-96510288D01*
X148878213Y-96510292D01*
X148989707Y-96621786D01*
X148989711Y-96621789D01*
X149120814Y-96709390D01*
X149120827Y-96709397D01*
X149221277Y-96751004D01*
X149266503Y-96769737D01*
X149421153Y-96800499D01*
X149421156Y-96800500D01*
X149421158Y-96800500D01*
X149578844Y-96800500D01*
X149578845Y-96800499D01*
X149733497Y-96769737D01*
X149879179Y-96709394D01*
X150010289Y-96621789D01*
X150121789Y-96510289D01*
X150209394Y-96379179D01*
X150269737Y-96233497D01*
X150292151Y-96120814D01*
X150300638Y-96078150D01*
X150333023Y-96016239D01*
X150334514Y-96014720D01*
X150712417Y-95636819D01*
X150773740Y-95603334D01*
X150800098Y-95600500D01*
X151196561Y-95600500D01*
X151263600Y-95620185D01*
X151309355Y-95672989D01*
X151319299Y-95742147D01*
X151290274Y-95805703D01*
X151265452Y-95827602D01*
X151189711Y-95878210D01*
X151189707Y-95878213D01*
X151078213Y-95989707D01*
X151078210Y-95989711D01*
X150990609Y-96120814D01*
X150990602Y-96120827D01*
X150930264Y-96266498D01*
X150930261Y-96266510D01*
X150899500Y-96421153D01*
X150899500Y-96578846D01*
X150930261Y-96733489D01*
X150930264Y-96733501D01*
X150990602Y-96879172D01*
X150990609Y-96879185D01*
X151078210Y-97010288D01*
X151078213Y-97010292D01*
X151189707Y-97121786D01*
X151189711Y-97121789D01*
X151320814Y-97209390D01*
X151320827Y-97209397D01*
X151458683Y-97266498D01*
X151466503Y-97269737D01*
X151531147Y-97282595D01*
X151621849Y-97300638D01*
X151683760Y-97333023D01*
X151685336Y-97334571D01*
X152397557Y-98046793D01*
X152397559Y-98046794D01*
X152397563Y-98046797D01*
X152520047Y-98117512D01*
X152534489Y-98125850D01*
X152687216Y-98166774D01*
X152687218Y-98166774D01*
X152852927Y-98166774D01*
X152852943Y-98166773D01*
X153622984Y-98166773D01*
X153690023Y-98186458D01*
X153691875Y-98187671D01*
X153823564Y-98275663D01*
X153823577Y-98275670D01*
X153969248Y-98336008D01*
X153969253Y-98336010D01*
X154123903Y-98366772D01*
X154123906Y-98366773D01*
X154123908Y-98366773D01*
X154281594Y-98366773D01*
X154281595Y-98366772D01*
X154436247Y-98336010D01*
X154581929Y-98275667D01*
X154602930Y-98261633D01*
X154669604Y-98240755D01*
X154719273Y-98250173D01*
X154766503Y-98269737D01*
X154892955Y-98294890D01*
X154921153Y-98300499D01*
X154921156Y-98300500D01*
X154921158Y-98300500D01*
X155078844Y-98300500D01*
X155078845Y-98300499D01*
X155233497Y-98269737D01*
X155379179Y-98209394D01*
X155510289Y-98121789D01*
X155621789Y-98010289D01*
X155709394Y-97879179D01*
X155769737Y-97733497D01*
X155800500Y-97578842D01*
X155800500Y-97421158D01*
X155800500Y-97421155D01*
X155800499Y-97421153D01*
X155777079Y-97303414D01*
X155769737Y-97266503D01*
X155709794Y-97121786D01*
X155709397Y-97120827D01*
X155709390Y-97120814D01*
X155621789Y-96989711D01*
X155621786Y-96989707D01*
X155510292Y-96878213D01*
X155510288Y-96878210D01*
X155379185Y-96790609D01*
X155379178Y-96790605D01*
X155373860Y-96788403D01*
X155373858Y-96788401D01*
X155233501Y-96730264D01*
X155233491Y-96730261D01*
X155078149Y-96699361D01*
X155016238Y-96666976D01*
X155014660Y-96665425D01*
X152987590Y-94638355D01*
X152987588Y-94638352D01*
X152868717Y-94519481D01*
X152868716Y-94519480D01*
X152781904Y-94469360D01*
X152781904Y-94469359D01*
X152781900Y-94469358D01*
X152731785Y-94440423D01*
X152579057Y-94399499D01*
X152420943Y-94399499D01*
X152413347Y-94399499D01*
X152413331Y-94399500D01*
X150586670Y-94399500D01*
X150586654Y-94399499D01*
X150579058Y-94399499D01*
X150420943Y-94399499D01*
X150344579Y-94419961D01*
X150268214Y-94440423D01*
X150268209Y-94440426D01*
X150131290Y-94519475D01*
X150131282Y-94519481D01*
X149485339Y-95165425D01*
X149424016Y-95198910D01*
X149421850Y-95199361D01*
X149266508Y-95230261D01*
X149266498Y-95230264D01*
X149182295Y-95265142D01*
X149112825Y-95272611D01*
X149050346Y-95241335D01*
X149027456Y-95212581D01*
X149019824Y-95199362D01*
X148980519Y-95131284D01*
X148868716Y-95019481D01*
X147487590Y-93638355D01*
X147487588Y-93638352D01*
X147368717Y-93519481D01*
X147368716Y-93519480D01*
X147281904Y-93469360D01*
X147281904Y-93469359D01*
X147281900Y-93469358D01*
X147231785Y-93440423D01*
X147079057Y-93399499D01*
X146920943Y-93399499D01*
X146913347Y-93399499D01*
X146913331Y-93399500D01*
X146879766Y-93399500D01*
X146812727Y-93379815D01*
X146810875Y-93378602D01*
X146679185Y-93290609D01*
X146679172Y-93290602D01*
X146533501Y-93230264D01*
X146533489Y-93230261D01*
X146378845Y-93199500D01*
X146378842Y-93199500D01*
X146230286Y-93199500D01*
X146163247Y-93179815D01*
X146117492Y-93127011D01*
X146107548Y-93057853D01*
X146131019Y-93001189D01*
X146193796Y-92917331D01*
X146242810Y-92785916D01*
X146284681Y-92729984D01*
X146350145Y-92705566D01*
X146418418Y-92720417D01*
X146446673Y-92741569D01*
X146560213Y-92855109D01*
X146732179Y-92980048D01*
X146732181Y-92980049D01*
X146732184Y-92980051D01*
X146921588Y-93076557D01*
X147123757Y-93142246D01*
X147333713Y-93175500D01*
X147333714Y-93175500D01*
X147546286Y-93175500D01*
X147546287Y-93175500D01*
X147756243Y-93142246D01*
X147958412Y-93076557D01*
X148147816Y-92980051D01*
X148202572Y-92940269D01*
X148319786Y-92855109D01*
X148319788Y-92855106D01*
X148319792Y-92855104D01*
X148470104Y-92704792D01*
X148470106Y-92704788D01*
X148470109Y-92704786D01*
X148595048Y-92532820D01*
X148595047Y-92532820D01*
X148595051Y-92532816D01*
X148599514Y-92524054D01*
X148647488Y-92473259D01*
X148715308Y-92456463D01*
X148781444Y-92478999D01*
X148820486Y-92524056D01*
X148824951Y-92532820D01*
X148949890Y-92704786D01*
X149100213Y-92855109D01*
X149272179Y-92980048D01*
X149272181Y-92980049D01*
X149272184Y-92980051D01*
X149461588Y-93076557D01*
X149663757Y-93142246D01*
X149873713Y-93175500D01*
X149873714Y-93175500D01*
X150086286Y-93175500D01*
X150086287Y-93175500D01*
X150296243Y-93142246D01*
X150498412Y-93076557D01*
X150687816Y-92980051D01*
X150742572Y-92940269D01*
X150859786Y-92855109D01*
X150859788Y-92855106D01*
X150859792Y-92855104D01*
X151010104Y-92704792D01*
X151010106Y-92704788D01*
X151010109Y-92704786D01*
X151084154Y-92602870D01*
X151135051Y-92532816D01*
X151139793Y-92523508D01*
X151187763Y-92472711D01*
X151255583Y-92455911D01*
X151321719Y-92478445D01*
X151360763Y-92523500D01*
X151365373Y-92532547D01*
X151404728Y-92586716D01*
X152037037Y-91954408D01*
X152054075Y-92017993D01*
X152119901Y-92132007D01*
X152212993Y-92225099D01*
X152327007Y-92290925D01*
X152390590Y-92307962D01*
X151758282Y-92940269D01*
X151758282Y-92940270D01*
X151812449Y-92979624D01*
X152001782Y-93076095D01*
X152203870Y-93141757D01*
X152413754Y-93175000D01*
X152626246Y-93175000D01*
X152836127Y-93141757D01*
X152836130Y-93141757D01*
X153038217Y-93076095D01*
X153227554Y-92979622D01*
X153281716Y-92940270D01*
X153281717Y-92940270D01*
X152649408Y-92307962D01*
X152712993Y-92290925D01*
X152827007Y-92225099D01*
X152920099Y-92132007D01*
X152985925Y-92017993D01*
X153002962Y-91954408D01*
X153635270Y-92586717D01*
X153635270Y-92586716D01*
X153674622Y-92532554D01*
X153771095Y-92343217D01*
X153836757Y-92141130D01*
X153836757Y-92141127D01*
X153870000Y-91931246D01*
X153870000Y-91718753D01*
X153836757Y-91508872D01*
X153836757Y-91508869D01*
X153771095Y-91306782D01*
X153674624Y-91117449D01*
X153635270Y-91063282D01*
X153635269Y-91063282D01*
X153002962Y-91695590D01*
X152985925Y-91632007D01*
X152920099Y-91517993D01*
X152827007Y-91424901D01*
X152712993Y-91359075D01*
X152649409Y-91342037D01*
X153184310Y-90807135D01*
X156049500Y-90807135D01*
X156049500Y-92602870D01*
X156049501Y-92602876D01*
X156055908Y-92662483D01*
X156106202Y-92797328D01*
X156106206Y-92797335D01*
X156192452Y-92912544D01*
X156192455Y-92912547D01*
X156307664Y-92998793D01*
X156307671Y-92998797D01*
X156314082Y-93001188D01*
X156442517Y-93049091D01*
X156502127Y-93055500D01*
X156512685Y-93055499D01*
X156579723Y-93075179D01*
X156600372Y-93091818D01*
X157270591Y-93762037D01*
X157207007Y-93779075D01*
X157092993Y-93844901D01*
X156999901Y-93937993D01*
X156934075Y-94052007D01*
X156917037Y-94115591D01*
X156284728Y-93483282D01*
X156284727Y-93483282D01*
X156245380Y-93537439D01*
X156148904Y-93726782D01*
X156083242Y-93928869D01*
X156083242Y-93928872D01*
X156050000Y-94138753D01*
X156050000Y-94351246D01*
X156083242Y-94561127D01*
X156083242Y-94561130D01*
X156148904Y-94763217D01*
X156245375Y-94952550D01*
X156284728Y-95006716D01*
X156917037Y-94374408D01*
X156934075Y-94437993D01*
X156999901Y-94552007D01*
X157092993Y-94645099D01*
X157207007Y-94710925D01*
X157270590Y-94727962D01*
X156638282Y-95360269D01*
X156638282Y-95360270D01*
X156692452Y-95399626D01*
X156692451Y-95399626D01*
X156701495Y-95404234D01*
X156752292Y-95452208D01*
X156769087Y-95520029D01*
X156746550Y-95586164D01*
X156701499Y-95625202D01*
X156692182Y-95629949D01*
X156520213Y-95754890D01*
X156369890Y-95905213D01*
X156244951Y-96077179D01*
X156148444Y-96266585D01*
X156082753Y-96468760D01*
X156049500Y-96678713D01*
X156049500Y-96891286D01*
X156082636Y-97100503D01*
X156082754Y-97101243D01*
X156137501Y-97269737D01*
X156148444Y-97303414D01*
X156244951Y-97492820D01*
X156369890Y-97664786D01*
X156520213Y-97815109D01*
X156692182Y-97940050D01*
X156700946Y-97944516D01*
X156751742Y-97992491D01*
X156768536Y-98060312D01*
X156745998Y-98126447D01*
X156700946Y-98165484D01*
X156692182Y-98169949D01*
X156520213Y-98294890D01*
X156369890Y-98445213D01*
X156244951Y-98617179D01*
X156148444Y-98806585D01*
X156082753Y-99008760D01*
X156052543Y-99199500D01*
X156049500Y-99218713D01*
X156049500Y-99431287D01*
X156058753Y-99489707D01*
X156081177Y-99631290D01*
X156082754Y-99641243D01*
X156124010Y-99768216D01*
X156148444Y-99843414D01*
X156244951Y-100032820D01*
X156369890Y-100204786D01*
X156520213Y-100355109D01*
X156692179Y-100480048D01*
X156692181Y-100480049D01*
X156692184Y-100480051D01*
X156881588Y-100576557D01*
X157083757Y-100642246D01*
X157293713Y-100675500D01*
X157293714Y-100675500D01*
X157506286Y-100675500D01*
X157506287Y-100675500D01*
X157716243Y-100642246D01*
X157918412Y-100576557D01*
X158107816Y-100480051D01*
X158129789Y-100464086D01*
X158279786Y-100355109D01*
X158279788Y-100355106D01*
X158279792Y-100355104D01*
X158430104Y-100204792D01*
X158430106Y-100204788D01*
X158430109Y-100204786D01*
X158555048Y-100032820D01*
X158555047Y-100032820D01*
X158555051Y-100032816D01*
X158651557Y-99843412D01*
X158717246Y-99641243D01*
X158750500Y-99431287D01*
X158750500Y-99218713D01*
X158717246Y-99008757D01*
X158651557Y-98806588D01*
X158555051Y-98617184D01*
X158555049Y-98617181D01*
X158555048Y-98617179D01*
X158430109Y-98445213D01*
X158279786Y-98294890D01*
X158107820Y-98169951D01*
X158107115Y-98169591D01*
X158099054Y-98165485D01*
X158048259Y-98117512D01*
X158031463Y-98049692D01*
X158053999Y-97983556D01*
X158099054Y-97944515D01*
X158107816Y-97940051D01*
X158129789Y-97924086D01*
X158279786Y-97815109D01*
X158279788Y-97815106D01*
X158279792Y-97815104D01*
X158430104Y-97664792D01*
X158430106Y-97664788D01*
X158430109Y-97664786D01*
X158555048Y-97492820D01*
X158555047Y-97492820D01*
X158555051Y-97492816D01*
X158651557Y-97303412D01*
X158717246Y-97101243D01*
X158750500Y-96891287D01*
X158750500Y-96678713D01*
X158717246Y-96468757D01*
X158651557Y-96266588D01*
X158555051Y-96077184D01*
X158555049Y-96077181D01*
X158555048Y-96077179D01*
X158430109Y-95905213D01*
X158279786Y-95754890D01*
X158107817Y-95629949D01*
X158098504Y-95625204D01*
X158047707Y-95577230D01*
X158030912Y-95509409D01*
X158053449Y-95443274D01*
X158098507Y-95404232D01*
X158107555Y-95399622D01*
X158161716Y-95360270D01*
X158161717Y-95360270D01*
X157529408Y-94727962D01*
X157592993Y-94710925D01*
X157707007Y-94645099D01*
X157800099Y-94552007D01*
X157865925Y-94437993D01*
X157882962Y-94374408D01*
X158515270Y-95006717D01*
X158515270Y-95006716D01*
X158554622Y-94952554D01*
X158651095Y-94763217D01*
X158716757Y-94561130D01*
X158716757Y-94561127D01*
X158750000Y-94351246D01*
X158750000Y-94138753D01*
X158716757Y-93928872D01*
X158716757Y-93928869D01*
X158651095Y-93726782D01*
X158554624Y-93537449D01*
X158515270Y-93483282D01*
X158515269Y-93483282D01*
X157882962Y-94115590D01*
X157865925Y-94052007D01*
X157800099Y-93937993D01*
X157707007Y-93844901D01*
X157592993Y-93779075D01*
X157529409Y-93762037D01*
X158199627Y-93091818D01*
X158260950Y-93058333D01*
X158287307Y-93055499D01*
X158297872Y-93055499D01*
X158357483Y-93049091D01*
X158492331Y-92998796D01*
X158607546Y-92912546D01*
X158693796Y-92797331D01*
X158744091Y-92662483D01*
X158750500Y-92602873D01*
X158750499Y-90807128D01*
X158744091Y-90747517D01*
X158738551Y-90732664D01*
X158693797Y-90612671D01*
X158693793Y-90612664D01*
X158607547Y-90497455D01*
X158607544Y-90497452D01*
X158492335Y-90411206D01*
X158492328Y-90411202D01*
X158357482Y-90360908D01*
X158357483Y-90360908D01*
X158297883Y-90354501D01*
X158297881Y-90354500D01*
X158297873Y-90354500D01*
X158297864Y-90354500D01*
X156502129Y-90354500D01*
X156502123Y-90354501D01*
X156442516Y-90360908D01*
X156307671Y-90411202D01*
X156307664Y-90411206D01*
X156192455Y-90497452D01*
X156192452Y-90497455D01*
X156106206Y-90612664D01*
X156106202Y-90612671D01*
X156055908Y-90747517D01*
X156050815Y-90794896D01*
X156049501Y-90807123D01*
X156049500Y-90807135D01*
X153184310Y-90807135D01*
X153275320Y-90716125D01*
X153281716Y-90709728D01*
X153227550Y-90670375D01*
X153038217Y-90573904D01*
X152836129Y-90508242D01*
X152626246Y-90475000D01*
X152413754Y-90475000D01*
X152203872Y-90508242D01*
X152203869Y-90508242D01*
X152001782Y-90573904D01*
X151812439Y-90670380D01*
X151758282Y-90709727D01*
X151758282Y-90709728D01*
X152390591Y-91342037D01*
X152327007Y-91359075D01*
X152212993Y-91424901D01*
X152119901Y-91517993D01*
X152054075Y-91632007D01*
X152037037Y-91695591D01*
X151404728Y-91063282D01*
X151404727Y-91063282D01*
X151365380Y-91117440D01*
X151365376Y-91117446D01*
X151360760Y-91126505D01*
X151312781Y-91177297D01*
X151244959Y-91194087D01*
X151178826Y-91171543D01*
X151139794Y-91126493D01*
X151135051Y-91117184D01*
X151135049Y-91117181D01*
X151135048Y-91117179D01*
X151010109Y-90945213D01*
X150859786Y-90794890D01*
X150687820Y-90669951D01*
X150498414Y-90573444D01*
X150498413Y-90573443D01*
X150498412Y-90573443D01*
X150296243Y-90507754D01*
X150296241Y-90507753D01*
X150296240Y-90507753D01*
X150134957Y-90482208D01*
X150086287Y-90474500D01*
X149873713Y-90474500D01*
X149825042Y-90482208D01*
X149663760Y-90507753D01*
X149461585Y-90573444D01*
X149272179Y-90669951D01*
X149100213Y-90794890D01*
X148949890Y-90945213D01*
X148824949Y-91117182D01*
X148820484Y-91125946D01*
X148772509Y-91176742D01*
X148704688Y-91193536D01*
X148638553Y-91170998D01*
X148599516Y-91125946D01*
X148595050Y-91117182D01*
X148470109Y-90945213D01*
X148319786Y-90794890D01*
X148147820Y-90669951D01*
X147958414Y-90573444D01*
X147958413Y-90573443D01*
X147958412Y-90573443D01*
X147756243Y-90507754D01*
X147756241Y-90507753D01*
X147756240Y-90507753D01*
X147594957Y-90482208D01*
X147546287Y-90474500D01*
X147333713Y-90474500D01*
X147285042Y-90482208D01*
X147123760Y-90507753D01*
X146921585Y-90573444D01*
X146732179Y-90669951D01*
X146560215Y-90794889D01*
X146446673Y-90908431D01*
X146385350Y-90941915D01*
X146315658Y-90936931D01*
X146259725Y-90895059D01*
X146242810Y-90864082D01*
X146193797Y-90732671D01*
X146193793Y-90732664D01*
X146107547Y-90617455D01*
X146107544Y-90617452D01*
X145992335Y-90531206D01*
X145992328Y-90531202D01*
X145857482Y-90480908D01*
X145857483Y-90480908D01*
X145797883Y-90474501D01*
X145797881Y-90474500D01*
X145797873Y-90474500D01*
X145797864Y-90474500D01*
X144002129Y-90474500D01*
X144002123Y-90474501D01*
X143942516Y-90480908D01*
X143807671Y-90531202D01*
X143807664Y-90531206D01*
X143692455Y-90617452D01*
X143692452Y-90617455D01*
X143606206Y-90732664D01*
X143606202Y-90732671D01*
X143555908Y-90867517D01*
X143549501Y-90927116D01*
X143549500Y-90927135D01*
X141950000Y-90927135D01*
X141950000Y-90656430D01*
X141949999Y-90656428D01*
X141913493Y-90472902D01*
X141913491Y-90472894D01*
X141841880Y-90300008D01*
X141841875Y-90299999D01*
X141737913Y-90144410D01*
X141737910Y-90144406D01*
X141605593Y-90012089D01*
X141605589Y-90012086D01*
X141450000Y-89908124D01*
X141449991Y-89908119D01*
X141277103Y-89836507D01*
X141277100Y-89836506D01*
X141250000Y-89831115D01*
X141250000Y-90583011D01*
X141240060Y-90565795D01*
X141184205Y-90509940D01*
X141115796Y-90470444D01*
X141039496Y-90450000D01*
X140960504Y-90450000D01*
X140884204Y-90470444D01*
X140815795Y-90509940D01*
X140759940Y-90565795D01*
X140750000Y-90583011D01*
X140750000Y-89831116D01*
X140749999Y-89831115D01*
X140722899Y-89836506D01*
X140722896Y-89836507D01*
X140550007Y-89908120D01*
X140474500Y-89958571D01*
X140468963Y-90014786D01*
X140442801Y-90079573D01*
X140433241Y-90090311D01*
X140003553Y-90519999D01*
X140003553Y-90520000D01*
X140432060Y-90948507D01*
X140465545Y-91009830D01*
X140460561Y-91079522D01*
X140432060Y-91123869D01*
X140360929Y-91195000D01*
X140432060Y-91266131D01*
X140465545Y-91327454D01*
X140460561Y-91397146D01*
X140432060Y-91441493D01*
X139914457Y-91959095D01*
X139906511Y-91963433D01*
X139901086Y-91970681D01*
X139876326Y-91979915D01*
X139853134Y-91992580D01*
X139844104Y-91991934D01*
X139835622Y-91995098D01*
X139812725Y-91990117D01*
X139819552Y-91983291D01*
X139850000Y-91909782D01*
X139850000Y-91830218D01*
X139819552Y-91756709D01*
X139763291Y-91700448D01*
X139689782Y-91670000D01*
X139627380Y-91670000D01*
X139618587Y-91625794D01*
X139624814Y-91556203D01*
X139652523Y-91513922D01*
X139971446Y-91195000D01*
X139971446Y-91194999D01*
X139652523Y-90876076D01*
X139619038Y-90814753D01*
X139618587Y-90764204D01*
X139627380Y-90720000D01*
X139689782Y-90720000D01*
X139763291Y-90689552D01*
X139819552Y-90633291D01*
X139850000Y-90559782D01*
X139850000Y-90480218D01*
X139819552Y-90406709D01*
X139763291Y-90350448D01*
X139689782Y-90320000D01*
X139627380Y-90320000D01*
X139618587Y-90275793D01*
X139624814Y-90206202D01*
X139652523Y-90163921D01*
X140050561Y-89765884D01*
X139897936Y-89702665D01*
X139897928Y-89702663D01*
X139733721Y-89670000D01*
X139566279Y-89670000D01*
X139402071Y-89702663D01*
X139402063Y-89702665D01*
X139273107Y-89756081D01*
X139203637Y-89763550D01*
X139178201Y-89756081D01*
X139048082Y-89702184D01*
X139048074Y-89702182D01*
X138900944Y-89672916D01*
X138884187Y-89664151D01*
X138865708Y-89660131D01*
X138840669Y-89641386D01*
X138839033Y-89640531D01*
X138837454Y-89638980D01*
X138706829Y-89508355D01*
X138706827Y-89508352D01*
X138587956Y-89389481D01*
X138587955Y-89389480D01*
X138501143Y-89339360D01*
X138501143Y-89339359D01*
X138501139Y-89339358D01*
X138451024Y-89310423D01*
X138298296Y-89269499D01*
X138140182Y-89269499D01*
X138132586Y-89269499D01*
X138132570Y-89269500D01*
X135209818Y-89269500D01*
X135051704Y-89269500D01*
X134898976Y-89310423D01*
X134898975Y-89310423D01*
X134898973Y-89310424D01*
X134898970Y-89310425D01*
X134848857Y-89339359D01*
X134848856Y-89339360D01*
X134805450Y-89364420D01*
X134762046Y-89389479D01*
X134762043Y-89389481D01*
X134650241Y-89501283D01*
X134650241Y-89501284D01*
X134650239Y-89501286D01*
X134574523Y-89577002D01*
X134512544Y-89638981D01*
X134451221Y-89672465D01*
X134449054Y-89672916D01*
X134301925Y-89702182D01*
X134301917Y-89702184D01*
X134171799Y-89756081D01*
X134102329Y-89763550D01*
X134076893Y-89756081D01*
X133947936Y-89702665D01*
X133947928Y-89702663D01*
X133783721Y-89670000D01*
X133616279Y-89670000D01*
X133452071Y-89702662D01*
X133452062Y-89702665D01*
X133299437Y-89765884D01*
X133697476Y-90163922D01*
X133730961Y-90225245D01*
X133731412Y-90275794D01*
X133722619Y-90320000D01*
X133660218Y-90320000D01*
X133586709Y-90350448D01*
X133530448Y-90406709D01*
X133500000Y-90480218D01*
X133500000Y-90559782D01*
X133530448Y-90633291D01*
X133586709Y-90689552D01*
X133660218Y-90720000D01*
X133722619Y-90720000D01*
X133731412Y-90764204D01*
X133725185Y-90833796D01*
X133697476Y-90876076D01*
X133378553Y-91194999D01*
X133378553Y-91195000D01*
X133697476Y-91513922D01*
X133700075Y-91518683D01*
X133704601Y-91521679D01*
X133716643Y-91549025D01*
X133730961Y-91575245D01*
X133731155Y-91581977D01*
X133732761Y-91585623D01*
X133731955Y-91609616D01*
X133732282Y-91620913D01*
X133731892Y-91623382D01*
X133722620Y-91670000D01*
X133660218Y-91670000D01*
X133586709Y-91700448D01*
X133530448Y-91756709D01*
X133500000Y-91830218D01*
X133500000Y-91909782D01*
X133530448Y-91983291D01*
X133538978Y-91991821D01*
X133479888Y-91987595D01*
X133435542Y-91959095D01*
X132917939Y-91441493D01*
X132884454Y-91380170D01*
X132889438Y-91310479D01*
X132917939Y-91266131D01*
X132989070Y-91195000D01*
X132917938Y-91123868D01*
X132884454Y-91062545D01*
X132889438Y-90992853D01*
X132917939Y-90948506D01*
X133346446Y-90519999D01*
X132916757Y-90090310D01*
X132883272Y-90028987D01*
X132881035Y-90014784D01*
X132875497Y-89958570D01*
X132800000Y-89908124D01*
X132799991Y-89908119D01*
X132627103Y-89836507D01*
X132627100Y-89836506D01*
X132600000Y-89831115D01*
X132600000Y-90583011D01*
X132590060Y-90565795D01*
X132534205Y-90509940D01*
X132465796Y-90470444D01*
X132389496Y-90450000D01*
X132310504Y-90450000D01*
X132234204Y-90470444D01*
X132165795Y-90509940D01*
X132109940Y-90565795D01*
X132100000Y-90583011D01*
X132100000Y-89831116D01*
X132099999Y-89831115D01*
X132072899Y-89836506D01*
X132072896Y-89836507D01*
X131900008Y-89908119D01*
X131899999Y-89908124D01*
X131744410Y-90012086D01*
X131744406Y-90012089D01*
X131712181Y-90044315D01*
X131650858Y-90077800D01*
X131581166Y-90072816D01*
X131525233Y-90030944D01*
X131500816Y-89965480D01*
X131500500Y-89956634D01*
X131500500Y-88124500D01*
X131520185Y-88057461D01*
X131572989Y-88011706D01*
X131624500Y-88000500D01*
X160375500Y-88000500D01*
X160442539Y-88020185D01*
G37*
%TD.AperFunction*%
%TD*%
M02*
