M48
; DRILL file KiCad 10.0.1 date 2026-05-11T03:26:50
; FORMAT={-:-/ absolute / metric / decimal}
; #@! TF.CreationDate,2026-05-11T03:26:50+05:30
; #@! TF.GenerationSoftware,Kicad,Pcbnew,10.0.1
; #@! TF.FileFunction,Plated,1,2,PTH
FMAT,2
METRIC
; #@! TA.AperFunction,Plated,PTH,ViaDrill
T1C0.300
; #@! TA.AperFunction,Plated,PTH,ComponentDrill
T2C0.400
; #@! TA.AperFunction,Plated,PTH,ComponentDrill
T3C0.600
; #@! TA.AperFunction,Plated,PTH,ComponentDrill
T4C1.000
%
G90
G05
T1
X138.0Y-94.5
X142.5Y-106.4
X144.725Y-103.2
X146.3Y-94.0
X146.3Y-96.0
X147.5Y-95.5
X147.5Y-96.3
X147.5Y-111.0
X149.5Y-96.0
X150.45Y-110.05
X151.7Y-96.5
X151.826Y-101.432
X153.075Y-99.2
X153.075Y-100.0
X154.203Y-97.566
X154.803Y-99.373
X155.0Y-97.5
T2
X133.7Y-90.52
X133.7Y-91.87
X134.55Y-90.52
X134.55Y-91.87
X135.4Y-90.52
X135.4Y-91.87
X136.25Y-90.52
X136.25Y-91.87
X137.1Y-90.52
X137.1Y-91.87
X137.95Y-90.52
X137.95Y-91.87
X138.8Y-90.52
X138.8Y-91.87
X139.65Y-90.52
X139.65Y-91.87
T4
X144.9Y-91.825
X147.44Y-91.825
X149.98Y-91.825
X152.52Y-91.825
X157.4Y-91.705
X157.4Y-94.245
X157.4Y-96.785
X157.4Y-99.325
X157.4Y-103.705
X157.4Y-106.245
X157.4Y-108.785
X157.4Y-111.325
T3
G00X132.35Y-90.75
M15
G01X132.35Y-92.25
M16
G05
G00X132.35Y-94.48
M15
G01X132.35Y-95.28
M16
G05
G00X141.0Y-90.75
M15
G01X141.0Y-92.25
M16
G05
G00X141.0Y-94.48
M15
G01X141.0Y-95.28
M16
G05
M30
