%TF.GenerationSoftware,KiCad,Pcbnew,10.0.1*%
%TF.CreationDate,2026-05-11T03:24:49+05:30*%
%TF.ProjectId,STM32G_SuperSpeed_USB_Sensor_Module,53544d33-3247-45f5-9375-706572537065,rev?*%
%TF.SameCoordinates,Original*%
%TF.FileFunction,Legend,Top*%
%TF.FilePolarity,Positive*%
%FSLAX46Y46*%
G04 Gerber Fmt 4.6, Leading zero omitted, Abs format (unit mm)*
G04 Created by KiCad (PCBNEW 10.0.1) date 2026-05-11 03:24:49*
%MOMM*%
%LPD*%
G01*
G04 APERTURE LIST*
%ADD10C,0.125000*%
%ADD11C,0.080000*%
%ADD12C,0.087500*%
%ADD13C,0.120000*%
G04 APERTURE END LIST*
D10*
X142519047Y-104563595D02*
X142519047Y-105211214D01*
X142519047Y-105211214D02*
X142542857Y-105287404D01*
X142542857Y-105287404D02*
X142566666Y-105325500D01*
X142566666Y-105325500D02*
X142614285Y-105363595D01*
X142614285Y-105363595D02*
X142709523Y-105363595D01*
X142709523Y-105363595D02*
X142757142Y-105325500D01*
X142757142Y-105325500D02*
X142780952Y-105287404D01*
X142780952Y-105287404D02*
X142804761Y-105211214D01*
X142804761Y-105211214D02*
X142804761Y-104563595D01*
X143304762Y-105363595D02*
X143019048Y-105363595D01*
X143161905Y-105363595D02*
X143161905Y-104563595D01*
X143161905Y-104563595D02*
X143114286Y-104677880D01*
X143114286Y-104677880D02*
X143066667Y-104754071D01*
X143066667Y-104754071D02*
X143019048Y-104792166D01*
D11*
X141916666Y-111315935D02*
X141750000Y-110934982D01*
X141630952Y-111315935D02*
X141630952Y-110515935D01*
X141630952Y-110515935D02*
X141821428Y-110515935D01*
X141821428Y-110515935D02*
X141869047Y-110554030D01*
X141869047Y-110554030D02*
X141892857Y-110592125D01*
X141892857Y-110592125D02*
X141916666Y-110668316D01*
X141916666Y-110668316D02*
X141916666Y-110782601D01*
X141916666Y-110782601D02*
X141892857Y-110858792D01*
X141892857Y-110858792D02*
X141869047Y-110896887D01*
X141869047Y-110896887D02*
X141821428Y-110934982D01*
X141821428Y-110934982D02*
X141630952Y-110934982D01*
X142083333Y-110515935D02*
X142392857Y-110515935D01*
X142392857Y-110515935D02*
X142226190Y-110820697D01*
X142226190Y-110820697D02*
X142297619Y-110820697D01*
X142297619Y-110820697D02*
X142345238Y-110858792D01*
X142345238Y-110858792D02*
X142369047Y-110896887D01*
X142369047Y-110896887D02*
X142392857Y-110973078D01*
X142392857Y-110973078D02*
X142392857Y-111163554D01*
X142392857Y-111163554D02*
X142369047Y-111239744D01*
X142369047Y-111239744D02*
X142345238Y-111277840D01*
X142345238Y-111277840D02*
X142297619Y-111315935D01*
X142297619Y-111315935D02*
X142154762Y-111315935D01*
X142154762Y-111315935D02*
X142107143Y-111277840D01*
X142107143Y-111277840D02*
X142083333Y-111239744D01*
X136630952Y-108365935D02*
X136630952Y-107565935D01*
X136630952Y-107565935D02*
X136750000Y-107565935D01*
X136750000Y-107565935D02*
X136821428Y-107604030D01*
X136821428Y-107604030D02*
X136869047Y-107680220D01*
X136869047Y-107680220D02*
X136892857Y-107756411D01*
X136892857Y-107756411D02*
X136916666Y-107908792D01*
X136916666Y-107908792D02*
X136916666Y-108023078D01*
X136916666Y-108023078D02*
X136892857Y-108175459D01*
X136892857Y-108175459D02*
X136869047Y-108251649D01*
X136869047Y-108251649D02*
X136821428Y-108327840D01*
X136821428Y-108327840D02*
X136750000Y-108365935D01*
X136750000Y-108365935D02*
X136630952Y-108365935D01*
X137392857Y-108365935D02*
X137107143Y-108365935D01*
X137250000Y-108365935D02*
X137250000Y-107565935D01*
X137250000Y-107565935D02*
X137202381Y-107680220D01*
X137202381Y-107680220D02*
X137154762Y-107756411D01*
X137154762Y-107756411D02*
X137107143Y-107794506D01*
X158833333Y-101065935D02*
X158833333Y-101637363D01*
X158833333Y-101637363D02*
X158809524Y-101751649D01*
X158809524Y-101751649D02*
X158761905Y-101827840D01*
X158761905Y-101827840D02*
X158690476Y-101865935D01*
X158690476Y-101865935D02*
X158642857Y-101865935D01*
X159023809Y-101065935D02*
X159333333Y-101065935D01*
X159333333Y-101065935D02*
X159166666Y-101370697D01*
X159166666Y-101370697D02*
X159238095Y-101370697D01*
X159238095Y-101370697D02*
X159285714Y-101408792D01*
X159285714Y-101408792D02*
X159309523Y-101446887D01*
X159309523Y-101446887D02*
X159333333Y-101523078D01*
X159333333Y-101523078D02*
X159333333Y-101713554D01*
X159333333Y-101713554D02*
X159309523Y-101789744D01*
X159309523Y-101789744D02*
X159285714Y-101827840D01*
X159285714Y-101827840D02*
X159238095Y-101865935D01*
X159238095Y-101865935D02*
X159095238Y-101865935D01*
X159095238Y-101865935D02*
X159047619Y-101827840D01*
X159047619Y-101827840D02*
X159023809Y-101789744D01*
X157833333Y-89065935D02*
X157833333Y-89637363D01*
X157833333Y-89637363D02*
X157809524Y-89751649D01*
X157809524Y-89751649D02*
X157761905Y-89827840D01*
X157761905Y-89827840D02*
X157690476Y-89865935D01*
X157690476Y-89865935D02*
X157642857Y-89865935D01*
X158285714Y-89332601D02*
X158285714Y-89865935D01*
X158166666Y-89027840D02*
X158047619Y-89599268D01*
X158047619Y-89599268D02*
X158357142Y-89599268D01*
D12*
X141766666Y-88610545D02*
X141766666Y-89181973D01*
X141766666Y-89181973D02*
X141733333Y-89296259D01*
X141733333Y-89296259D02*
X141666666Y-89372450D01*
X141666666Y-89372450D02*
X141566666Y-89410545D01*
X141566666Y-89410545D02*
X141500000Y-89410545D01*
X142466666Y-89410545D02*
X142066666Y-89410545D01*
X142266666Y-89410545D02*
X142266666Y-88610545D01*
X142266666Y-88610545D02*
X142199999Y-88724830D01*
X142199999Y-88724830D02*
X142133333Y-88801021D01*
X142133333Y-88801021D02*
X142066666Y-88839116D01*
D11*
X153333333Y-88565935D02*
X153333333Y-89137363D01*
X153333333Y-89137363D02*
X153309524Y-89251649D01*
X153309524Y-89251649D02*
X153261905Y-89327840D01*
X153261905Y-89327840D02*
X153190476Y-89365935D01*
X153190476Y-89365935D02*
X153142857Y-89365935D01*
X153547619Y-88642125D02*
X153571428Y-88604030D01*
X153571428Y-88604030D02*
X153619047Y-88565935D01*
X153619047Y-88565935D02*
X153738095Y-88565935D01*
X153738095Y-88565935D02*
X153785714Y-88604030D01*
X153785714Y-88604030D02*
X153809523Y-88642125D01*
X153809523Y-88642125D02*
X153833333Y-88718316D01*
X153833333Y-88718316D02*
X153833333Y-88794506D01*
X153833333Y-88794506D02*
X153809523Y-88908792D01*
X153809523Y-88908792D02*
X153523809Y-89365935D01*
X153523809Y-89365935D02*
X153833333Y-89365935D01*
X138416666Y-106789744D02*
X138392857Y-106827840D01*
X138392857Y-106827840D02*
X138321428Y-106865935D01*
X138321428Y-106865935D02*
X138273809Y-106865935D01*
X138273809Y-106865935D02*
X138202381Y-106827840D01*
X138202381Y-106827840D02*
X138154762Y-106751649D01*
X138154762Y-106751649D02*
X138130952Y-106675459D01*
X138130952Y-106675459D02*
X138107143Y-106523078D01*
X138107143Y-106523078D02*
X138107143Y-106408792D01*
X138107143Y-106408792D02*
X138130952Y-106256411D01*
X138130952Y-106256411D02*
X138154762Y-106180220D01*
X138154762Y-106180220D02*
X138202381Y-106104030D01*
X138202381Y-106104030D02*
X138273809Y-106065935D01*
X138273809Y-106065935D02*
X138321428Y-106065935D01*
X138321428Y-106065935D02*
X138392857Y-106104030D01*
X138392857Y-106104030D02*
X138416666Y-106142125D01*
X138607143Y-106142125D02*
X138630952Y-106104030D01*
X138630952Y-106104030D02*
X138678571Y-106065935D01*
X138678571Y-106065935D02*
X138797619Y-106065935D01*
X138797619Y-106065935D02*
X138845238Y-106104030D01*
X138845238Y-106104030D02*
X138869047Y-106142125D01*
X138869047Y-106142125D02*
X138892857Y-106218316D01*
X138892857Y-106218316D02*
X138892857Y-106294506D01*
X138892857Y-106294506D02*
X138869047Y-106408792D01*
X138869047Y-106408792D02*
X138583333Y-106865935D01*
X138583333Y-106865935D02*
X138892857Y-106865935D01*
X138416666Y-103789744D02*
X138392857Y-103827840D01*
X138392857Y-103827840D02*
X138321428Y-103865935D01*
X138321428Y-103865935D02*
X138273809Y-103865935D01*
X138273809Y-103865935D02*
X138202381Y-103827840D01*
X138202381Y-103827840D02*
X138154762Y-103751649D01*
X138154762Y-103751649D02*
X138130952Y-103675459D01*
X138130952Y-103675459D02*
X138107143Y-103523078D01*
X138107143Y-103523078D02*
X138107143Y-103408792D01*
X138107143Y-103408792D02*
X138130952Y-103256411D01*
X138130952Y-103256411D02*
X138154762Y-103180220D01*
X138154762Y-103180220D02*
X138202381Y-103104030D01*
X138202381Y-103104030D02*
X138273809Y-103065935D01*
X138273809Y-103065935D02*
X138321428Y-103065935D01*
X138321428Y-103065935D02*
X138392857Y-103104030D01*
X138392857Y-103104030D02*
X138416666Y-103142125D01*
X138892857Y-103865935D02*
X138607143Y-103865935D01*
X138750000Y-103865935D02*
X138750000Y-103065935D01*
X138750000Y-103065935D02*
X138702381Y-103180220D01*
X138702381Y-103180220D02*
X138654762Y-103256411D01*
X138654762Y-103256411D02*
X138607143Y-103294506D01*
X149365935Y-110083333D02*
X148984982Y-110249999D01*
X149365935Y-110369047D02*
X148565935Y-110369047D01*
X148565935Y-110369047D02*
X148565935Y-110178571D01*
X148565935Y-110178571D02*
X148604030Y-110130952D01*
X148604030Y-110130952D02*
X148642125Y-110107142D01*
X148642125Y-110107142D02*
X148718316Y-110083333D01*
X148718316Y-110083333D02*
X148832601Y-110083333D01*
X148832601Y-110083333D02*
X148908792Y-110107142D01*
X148908792Y-110107142D02*
X148946887Y-110130952D01*
X148946887Y-110130952D02*
X148984982Y-110178571D01*
X148984982Y-110178571D02*
X148984982Y-110369047D01*
X148565935Y-109630952D02*
X148565935Y-109869047D01*
X148565935Y-109869047D02*
X148946887Y-109892856D01*
X148946887Y-109892856D02*
X148908792Y-109869047D01*
X148908792Y-109869047D02*
X148870697Y-109821428D01*
X148870697Y-109821428D02*
X148870697Y-109702380D01*
X148870697Y-109702380D02*
X148908792Y-109654761D01*
X148908792Y-109654761D02*
X148946887Y-109630952D01*
X148946887Y-109630952D02*
X149023078Y-109607142D01*
X149023078Y-109607142D02*
X149213554Y-109607142D01*
X149213554Y-109607142D02*
X149289744Y-109630952D01*
X149289744Y-109630952D02*
X149327840Y-109654761D01*
X149327840Y-109654761D02*
X149365935Y-109702380D01*
X149365935Y-109702380D02*
X149365935Y-109821428D01*
X149365935Y-109821428D02*
X149327840Y-109869047D01*
X149327840Y-109869047D02*
X149289744Y-109892856D01*
X154015935Y-110083333D02*
X153634982Y-110249999D01*
X154015935Y-110369047D02*
X153215935Y-110369047D01*
X153215935Y-110369047D02*
X153215935Y-110178571D01*
X153215935Y-110178571D02*
X153254030Y-110130952D01*
X153254030Y-110130952D02*
X153292125Y-110107142D01*
X153292125Y-110107142D02*
X153368316Y-110083333D01*
X153368316Y-110083333D02*
X153482601Y-110083333D01*
X153482601Y-110083333D02*
X153558792Y-110107142D01*
X153558792Y-110107142D02*
X153596887Y-110130952D01*
X153596887Y-110130952D02*
X153634982Y-110178571D01*
X153634982Y-110178571D02*
X153634982Y-110369047D01*
X153482601Y-109654761D02*
X154015935Y-109654761D01*
X153177840Y-109773809D02*
X153749268Y-109892856D01*
X153749268Y-109892856D02*
X153749268Y-109583333D01*
X132416666Y-104365935D02*
X132250000Y-103984982D01*
X132130952Y-104365935D02*
X132130952Y-103565935D01*
X132130952Y-103565935D02*
X132321428Y-103565935D01*
X132321428Y-103565935D02*
X132369047Y-103604030D01*
X132369047Y-103604030D02*
X132392857Y-103642125D01*
X132392857Y-103642125D02*
X132416666Y-103718316D01*
X132416666Y-103718316D02*
X132416666Y-103832601D01*
X132416666Y-103832601D02*
X132392857Y-103908792D01*
X132392857Y-103908792D02*
X132369047Y-103946887D01*
X132369047Y-103946887D02*
X132321428Y-103984982D01*
X132321428Y-103984982D02*
X132130952Y-103984982D01*
X132607143Y-103642125D02*
X132630952Y-103604030D01*
X132630952Y-103604030D02*
X132678571Y-103565935D01*
X132678571Y-103565935D02*
X132797619Y-103565935D01*
X132797619Y-103565935D02*
X132845238Y-103604030D01*
X132845238Y-103604030D02*
X132869047Y-103642125D01*
X132869047Y-103642125D02*
X132892857Y-103718316D01*
X132892857Y-103718316D02*
X132892857Y-103794506D01*
X132892857Y-103794506D02*
X132869047Y-103908792D01*
X132869047Y-103908792D02*
X132583333Y-104365935D01*
X132583333Y-104365935D02*
X132892857Y-104365935D01*
X132416666Y-101365935D02*
X132250000Y-100984982D01*
X132130952Y-101365935D02*
X132130952Y-100565935D01*
X132130952Y-100565935D02*
X132321428Y-100565935D01*
X132321428Y-100565935D02*
X132369047Y-100604030D01*
X132369047Y-100604030D02*
X132392857Y-100642125D01*
X132392857Y-100642125D02*
X132416666Y-100718316D01*
X132416666Y-100718316D02*
X132416666Y-100832601D01*
X132416666Y-100832601D02*
X132392857Y-100908792D01*
X132392857Y-100908792D02*
X132369047Y-100946887D01*
X132369047Y-100946887D02*
X132321428Y-100984982D01*
X132321428Y-100984982D02*
X132130952Y-100984982D01*
X132892857Y-101365935D02*
X132607143Y-101365935D01*
X132750000Y-101365935D02*
X132750000Y-100565935D01*
X132750000Y-100565935D02*
X132702381Y-100680220D01*
X132702381Y-100680220D02*
X132654762Y-100756411D01*
X132654762Y-100756411D02*
X132607143Y-100794506D01*
%TO.C,U1*%
D13*
X145290000Y-98390000D02*
X145590000Y-98390000D01*
X145290000Y-98690000D02*
X145290000Y-98390000D01*
X145290000Y-105610000D02*
X145290000Y-105310000D01*
X145590000Y-105610000D02*
X145290000Y-105610000D01*
X152210000Y-98390000D02*
X152510000Y-98390000D01*
X152510000Y-98390000D02*
X152510000Y-98690000D01*
X152510000Y-105310000D02*
X152510000Y-105610000D01*
X152510000Y-105610000D02*
X152210000Y-105610000D01*
X145580000Y-106250000D02*
X145110000Y-106590000D01*
X145110000Y-105910000D01*
X145580000Y-106250000D01*
G36*
X145580000Y-106250000D02*
G01*
X145110000Y-106590000D01*
X145110000Y-105910000D01*
X145580000Y-106250000D01*
G37*
%TO.C,R3*%
X142314564Y-110235000D02*
X141860436Y-110235000D01*
X142314564Y-108765000D02*
X141860436Y-108765000D01*
%TO.C,D1*%
X135315000Y-108540000D02*
X135315000Y-110460000D01*
X135315000Y-110460000D02*
X138000000Y-110460000D01*
X138000000Y-108540000D02*
X135315000Y-108540000D01*
%TO.C,J3*%
X158780000Y-104975000D02*
X158780000Y-112705000D01*
X156020000Y-112705000D02*
X158780000Y-112705000D01*
X156020000Y-104975000D02*
X158780000Y-104975000D01*
X156020000Y-104975000D02*
X156020000Y-112705000D01*
X156020000Y-103705000D02*
X156020000Y-102325000D01*
X156020000Y-102325000D02*
X157400000Y-102325000D01*
%TO.C,J4*%
X156020000Y-90325000D02*
X157400000Y-90325000D01*
X156020000Y-91705000D02*
X156020000Y-90325000D01*
X156020000Y-92975000D02*
X156020000Y-100705000D01*
X156020000Y-92975000D02*
X158780000Y-92975000D01*
X156020000Y-100705000D02*
X158780000Y-100705000D01*
X158780000Y-92975000D02*
X158780000Y-100705000D01*
%TO.C,J1*%
X141270000Y-96520000D02*
X141270000Y-99250000D01*
X141270000Y-92920000D02*
X141270000Y-93820000D01*
X132200000Y-89840000D02*
X141150000Y-89840000D01*
X132080000Y-99250000D02*
X141270000Y-99250000D01*
X132080000Y-96520000D02*
X132080000Y-99250000D01*
X132080000Y-92920000D02*
X132080000Y-93820000D01*
%TO.C,J2*%
X153900000Y-93205000D02*
X153900000Y-90445000D01*
X146170000Y-93205000D02*
X153900000Y-93205000D01*
X146170000Y-93205000D02*
X146170000Y-90445000D01*
X146170000Y-90445000D02*
X153900000Y-90445000D01*
X144900000Y-93205000D02*
X143520000Y-93205000D01*
X143520000Y-93205000D02*
X143520000Y-91825000D01*
%TO.C,C2*%
X140238748Y-106235000D02*
X140761252Y-106235000D01*
X140238748Y-104765000D02*
X140761252Y-104765000D01*
%TO.C,C1*%
X140238748Y-103235000D02*
X140761252Y-103235000D01*
X140238748Y-101765000D02*
X140761252Y-101765000D01*
%TO.C,R5*%
X148235000Y-109860436D02*
X148235000Y-110314564D01*
X146765000Y-109860436D02*
X146765000Y-110314564D01*
%TO.C,R4*%
X152735000Y-109772936D02*
X152735000Y-110227064D01*
X151265000Y-109772936D02*
X151265000Y-110227064D01*
%TO.C,R2*%
X135227064Y-104765000D02*
X134772936Y-104765000D01*
X135227064Y-106235000D02*
X134772936Y-106235000D01*
%TO.C,R1*%
X135227064Y-101765000D02*
X134772936Y-101765000D01*
X135227064Y-103235000D02*
X134772936Y-103235000D01*
%TD*%
M02*
